<svg xmlns="http://www.w3.org/2000/svg" viewbox="0 0 512 512" width="512" height="512"><g transform="matrix(1.589862721761356 0 0 1.5898627217613563 -231.50138204856248 -172.50138204856327)"><svg xmlns="http://www.w3.org/2000/svg" width="512" height="512"><path fill="none" d="M0 0h512v512H0V0Z"/><path fill="#1c1a18" d="M298 109c4.56 1.52 5.361 4.738 7.625 8.875l2.414 4.367c2.607 4.995 3.066 8.172 2.961 13.758 35.182-1.417 70.32-2.998 105.428-5.73l3.338-.256c2.932-.226 5.863-.46 8.794-.694 16.67-.98 16.67-.98 20.065 1.93 3.81 7.62 4.628 12.617 1.375 20.75l-.813 3.875c-1.83 7.9-4.043 16.033-7.82 23.242-2.664 5.617-2.295 11.663.07 17.32L444 200l1.848 2.707c4.089 5.781 8.291 10.415 13.714 14.98 5.293 4.685 5.293 4.685 6.563 10.188-1.389 5.093-2.492 6.606-7.125 9.125-4.745.385-8.388.153-13-1v-2h8v-2l-3-1v-2h-5c-2.532-1.678-5.065-3.36-7.5-5.176-2.401-1.752-4.951-3.295-7.5-4.824-11.565-7.846-19.947-15.52-21.563-30.063.733-7.73 3.753-11.116 8.563-16.937 4.003-5.478 7.757-11.033 11-17-3.028.536-3.028.536-6 2l-.25 2.938C422 163 422 163 417 164.75l-5 1.25-1 2h-6l1-6h2l1-2h-5c2.695-2.695 6.084-5 10-5v-2l-4 1v2l-4.875.375c-4.984.074-4.984.074-7.125 2.625l-5.625 1.5L387 162v2l-4 .813c-5.27 1.251-8.508 3.241-13 6.187l-3.5.563c-3.325 1.452-3.325 1.452-2.938 7.375.253 6.303.773 8.397 5.438 13.062l2.063 2.688c1.798 2.557 1.798 2.557 4.937 3.312v2l5 1 3 1.063c3.272 1.186 3.272 1.186 8 .937l.438-2.938C393 197 393 197 394 196l1-3h2v4h2l.875 4.25c2.75 6.145 5.068 6.383 11.313 7.898C414 210 414 210 417 213v3h4v3h2l2 4 5 3v1c-10.75-.75-10.75-.75-13-3-3.71-1.056-7.449-1.922-11.203-2.805C402 220 402 220 398.89 217.918c-3.217-2.134-5.089-2.444-8.891-2.73-11.318-1.491-21.116-6.124-27-16.188l-2.25-3.813c-2.127-5.088-2.933-9.738-3.75-15.187l-5 1-2-4c-5.554-.483-8.778-.089-14 2-3.66.394-7.328.735-11 1 1.105 4.506 1.65 6.65 5 10l3.25.75c5.04 1.68 7.456 4.132 10.75 8.25-.063 3.438-.063 3.438-1 6l-4-2v-3c-3.44-.753-3.44-.753-7-1l-1 3-4-6-2 2-1-2-5-1-2 4c-3-1-3-1-4.188-5.375-1.502-10.402-1.501-16.606 4.188-25.625l1-4c-10.917 2.473-21.551 4.97-32 9h-3v2l-5.313 1.438c-5.674 1.054-5.674 1.054-8.687 4.562l-3 1-1 2a276.787 276.787 0 0 1-8 3c-4.316 1.895-4.316 1.895-8 6l-5 2-1 3c-2.921 3.237-5.055 5.028-9 7a265.46 265.46 0 0 0-7 8c-3.522 4.025-7.031 8.033-10.688 11.938-3.44 4.219-5.263 8.045-7.312 13.062l-2.063 3.5c-8.608 15.55-9.72 37.055-7.937 54.5 1.72 2.947 1.72 2.947 4 5 3.905 5.76 6.55 11.494 9 18 2.07 5.176 4.145 7.626 7.938 11.625l3.214 3.414c3.772 3.922 5.676 5.892 10.848 7.961 4.714 3.429 4.714 3.429 6 6a332.323 332.323 0 0 0 9 5l4.438 2.625c9.485 4.938 18.382 7.447 28.562 3.375 1-6.333 1-6.333-2.438-11.313L277 346l-1-4-5-2a122.441 122.441 0 0 1-4-7c-2.837-3.937-5.569-7.569-9-11v-2h-2v-3l-3-1c-6-9.294-6-9.294-6-12l-3-1c-2.701-8.103-1.16-17.959 1-26h2l.938-3.313c2.238-7.769 9.303-9.677 16.57-11.63 4.01-.941 8.027-1.824 12.055-2.682 2.73-.596 5.46-1.192 8.19-1.79l3.853-.833c2.648-.587 5.284-1.229 7.914-1.893 3.528-.87 7.007-1.477 10.605-1.984l3.508-.508C314 252 314 252 320 252v-2c3.658-.715 7.325-1.38 11-2l1-1c2.853-.073 5.708-.084 8.563-.063l4.753.028L349 247c-4 3-4 3-9 3.938-5.32.656-5.32.656-9 5.062-.816 5.152-.816 5.152-1 10l3-6 2 1c-7.034 17.815-17.624 28.293-35 37l-4-1c-2.78-13.902-.392-25.813 7-38-8.133.927-15.783 2.291-23.559 4.867a208.079 208.079 0 0 1-7.601 2.328l-4.277 1.243-3.934 1.12c-4.027 1.6-6.643 3.304-9.629 6.442 1.24 4.958 3.54 7.54 6.688 11.563 4.811 6.314 8.767 12.348 12.312 19.437l1.617 2.988c2.692 5.067 4.337 8.375 4.758 14.2 3.158 9.353 14.545 13.19 23.563 15.875 15.83 3.119 35.523 1.5 50.753-3.649 4.354-1.429 7.69-1.787 12.247-1.726l3.902.011C373 334 373 334 375 336c.107 5.024-1.54 8.08-4.25 12.125-7.142 10.699-11.158 23.523-12.188 36.313-.948 7.696-4.71 10.372-11.562 13.562h-6l-1-3-3.14 1.75-4.11 2.25-4.078 2.25C325 403 325 403 321 403l-2-2-3.625-.438c-6.467-2.31-8.7-6.988-12.375-12.562-7.958-10.553-16.01-13.386-28.621-15.297-11.772-1.89-23.685-5.356-34.379-10.703l2.5 4.938c2.386 5.259 3.11 9.23 2.5 15.062l-.313 3.188c-5.147 8.579-14.666 9.474-23.718 9.414C218 394 218 394 215 390a148.505 148.505 0 0 1-2-9l-.965-4.484c-1.373-7.319-2.12-14.657-2.89-22.059-1.047-9.619-2.264-16.594-8.145-24.559-3.896-5.645-6.9-11.79-10-17.898l-2.75-5.313c-2.156-4.776-3.111-9.555-4.125-14.687-2.629-12.326-7.333-18.387-16.5-26.875C158.575 256.39 151 243.938 151 231c1.758-2.5 1.758-2.5 4.125-5l2.32-2.5c5.01-4.902 9.3-8.149 15.93-10.563l4.262-1.57c4.19-1.313 8.23-2.061 12.55-2.804 10.165-2.355 14.761-9.59 20.813-17.563a315.033 315.033 0 0 1 4.875-5.125c3.821-3.723 3.821-3.723 2.125-8.875l-3-5c-1.28-10.72-1.28-10.72 2-14 3.375-.125 3.375-.125 7 0h4l-2.563-2.313L223 153l1-3c4.021-.56 7.935-1 12-1l-4-3v-6c4.75-1.313 4.75-1.313 10-2l4-1-1.5-2.75C243 131 243 131 243 127c5.352 1.07 9.967 2.92 15 5-1.084-5.113-2.233-10.078-4-15 6.492 3.246 12.44 7.337 18 12l-1-2.5c-1.133-3.967-1.142-7.394-1-11.5 5 3 5 3 7.563 5.125 2.484 2.17 2.484 2.17 6.437 2.875v-13c5.92 0 12.737 16.645 15.375 21.188l2.523 4.417c1.703 3.414 1.703 3.414 4.102 4.395l-1.242-2.633-1.633-3.492-1.617-3.445c-3.34-7.599-3.692-13.163-3.508-21.43Z"/><path fill="#88add3" d="M84.625 270.375c4.264 3.533 7.229 7.053 10.543 11.426 2.32 2.784 4.455 3.933 7.832 5.199 7.26 3.095 11.704 7.337 17 13l2.625 2.625a182.622 182.622 0 0 1 5.25 5.5c6.83 6.417 14.554 11.68 22.227 17.043 16.853 11.892 16.853 11.892 16.96 18.894-.35.97-.7 1.94-1.062 2.938h2l1 5 2 1c1.304-17.651-3.19-24.529-15.531-36.43-5.11-5.32-6.469-9.279-6.469-16.57 2.096-2.096 5.437-.565 8 0 4.292 4.292 4.423 4.676 4.813 10.25.888 6.903 3.296 9.704 8.187 14.75a268.79 268.79 0 0 1 4.188 6.75c3.127 4.999 6.35 9.005 10.625 13.063 10.684 10.209 18.274 23.138 26.226 35.503 1.604 2.953 1.604 2.953 3.961 2.684.716 2.989 1.381 5.99 2 9 2.951 2.951 11.158 1.384 15 1 5.122-2.285 5.122-2.285 9-5h2c1.825-8.895 1.416-14.996-3-23v-3l3.563 1.25c5.561 1.79 11.149 3.3 16.8 4.773 2.943.79 5.858 1.681 8.762 2.602 3.938 1.11 7.35 1.714 11.375 2.188 12.993 1.893 20.964 10.32 27.438 21.062 3.676 4.952 6.176 5.695 12.062 7.125l4 2c3.987-2.179 3.987-2.179 8-5 5.586-3 5.586-3 8-3l1 2c7.17 0 11.925-1.887 16-8 .4-3.326.74-6.66 1-10h1l1 6c2.744-3.292 5.202-6.72 7.625-10.25C371 370 371 370 373 369c-.846 6.769-3.482 12.705-6 19 7.646-5.277 14.83-10.569 21.25-17.313 7.759-8.035 16.66-14.28 25.75-20.687l3.719-2.707c10.436-7.492 20.116-12.96 33.281-12.293 2 3 2 3 2 8-5.857 7.372-12.61 13.262-19.863 19.238C427.1 367.412 427.1 367.412 426 375c3.84 3.84 11.646 2.412 16.951 2.479 7.93.199 13.355.827 19.049 6.521-1.35 5.4-2.862 5.292-8 7-2.97.481-5.95.895-8.938 1.25-7.864 1.218-12.097 2.46-17.062 8.75.657 4.506.657 4.506 5.563 7.125 5.599 4.89 5.59 6.69 4.437 13.875-2.48 6.07-4.305 10.368-11 11.938-6.147.076-10.332-1.62-16-3.938l-4.625-1.438c-5.92-2.114-11.101-4.94-16.223-8.593-11.227-7.997-21.667-8.688-35.277-7.656-4.264 2.502-3.156 5.088-3.246 9.66-1.04 5.008-4.464 7.544-8.184 10.836-2.737 2.31-2.737 2.31-5.445 6.191-5-1-5-1-9-4l-3.438-1.188c-4.152-1.65-7.286-3.503-11-5.937-5.253-3.343-9.2-4.875-15.562-4.875v5c-1.715 2.64-1.715 2.64-3.938 5.25l-2.214 2.64c-4.026 4.596-9.05 3.797-14.848 3.11-3.688-2.438-3.688-2.438-7-5-7.007-1.569-7.007-1.569-13 2-6.289.722-11.37-.37-16-5-6.139-.372-12.289-.372-18.438-.438l-5.224-.138c-10.147-.09-16.201.413-24.338 6.576-6.866 2.747-14.789 4.204-21.188-.188C167.375 428.375 169 424.625 169 413h-47c1-5 1-5 2-6a277.62 277.62 0 0 1 8.563-.563l4.753-.253L141 406l-5.563-1.313c-4.738-1.181-8.962-2.724-13.437-4.687-8.228-2.769-16.571-4.942-25-7l-3-1c-2.835.062-5.67.197-8.5.375l-4.594.273c-3.81.193-3.81.193-6.906 1.352-16.323 1.327-16.323 1.327-21-5-.93-3.004-.93-3.004-1-6 2.555-1.513 5.134-2.999 7.805-4.297C70.755 372.866 78.952 365.033 82 353l-3.063.188C72.709 352.89 67.31 350.57 63 346c0-6 0-6 1-7 10.718.228 18.204 7.802 25.063 15.188 17.36 18.01 38.616 27.071 63.124 30.812 11.744 2.02 22.334 5.949 32.75 11.75 3.58 2.411 3.58 2.411 6.063 2.25-9.839-19.866-21.87-33.236-42.313-42.375-6.947-3.89-10.537-8.918-13.625-16.188-1.734-3.881-1.734-3.881-5.875-4.062-6.862 1.024-10.162 1.6-15.187 6.625-3-1-3-1-3.75-4.438 1.075-6.539 4.855-10.25 9.75-14.562h2c-.634-3.274-.634-3.274-3.555-3.738l-3.32-.575c-8.807-1.852-15.427-5.432-22.313-11.187-6.276-4.116-10.3-1.105-16.812 1.5-15.372.916-30.715-.478-46-2l-5.188-.473-4.625-.464-4.019-.403C13 306 13 306 10 303c0-5.954.197-6.022 5-9 10.982-4.978 21.349-6.39 33.25-6.375h3.606C62.142 287.76 70.68 289.34 80 294v2l5 1 3 3c3.05-.302 6.1-.607 9.148-.938 6.881-.111 13.306 1.98 19.852 3.938-2.923-3.97-6.036-6.77-10-9.688l-3.125-2.324c-4.698-3.249-6.87-3.988-12.75-4.175-6.529-.403-8.01-2.803-12.125-7.813-5.148-.899-5.148-.899-10-1-2.993-2.993-1.859-5.064-1-9 5.66-2.83 11.31-1.354 16.625 1.375Z"/><path fill="#ebe4c8" d="M414 153v2a178.941 178.941 0 0 1-8 4l3 1-1 3-2-1v2l2 1h-3v3h6l1-3 5.063-.813L422 163v-6c3-2 3-2 7-2-1.735 6.939-6.192 11.763-10.617 17.238-6.691 8.672-9.746 14.556-6.133 25.575 1.753 3.193 3.714 6.168 5.75 9.187v2l4 2a202.383 202.383 0 0 1 5.063 4.25c5.333 4.452 10.781 7.555 16.937 10.75l2 2 5 1c3 3 3 3 3 5h-8v2c-3.47-.458-6.674-.891-10-2a252.243 252.243 0 0 0-11 1.688l-3.308.564a405.072 405.072 0 0 0-18.38 3.623c-9.754 2.124-19.585 3.716-29.437 5.313l-4.893.794c-7.315 1.17-14.604 2.31-21.982 3.018v-1c-2.375-.054-4.75-.093-7.125-.125l-4.008-.07c-3.737.188-6.364.99-9.867 2.195h-6v2l-5.125.734c-11.179 1.638-22.217 3.307-33.137 6.27-4.18 1.114-8.386 2.016-12.613 2.933-10.498 2.497-17.773 4.365-22.125 15.063h-2c-2.575 15.532-2.575 15.532 3 29l3.063 5.125c2.28 4.77 2.28 4.77 4.937 5.875v3h2l1 4 3 1a106.4 106.4 0 0 1 4.625 5.875l2.414 3.242C271 337 271 337 272 340l4 2a250 250 0 0 1 4 6l3 2c1.03 8.128 1.03 8.128-2.438 11.063-12.071 3.176-23.63-1.161-33.562-8.063l-4.188-2.5c-3.453-2.265-5.916-4.604-8.812-7.5l-2.8-1.316c-5.741-3.021-9.774-8.022-14.2-12.684l-2.938-2.875c-2.702-4.095-3.763-8.273-4.972-13.004-1.184-3.39-2.79-5.4-5.09-8.121l-1.063-3.25c-.648-3.096-.648-3.096-3.937-3.75-7.336-14.672.633-43.295 7.445-56.883 1.018-2.04 2.013-4.09 2.985-6.152 2.645-5.54 4.921-9.857 9.57-13.965a367.69 367.69 0 0 0 4.375-4.813l2.344-2.609a464.813 464.813 0 0 0 6.156-7.14C235 203 235 203 238 202l2.75-3.313c3.233-3.668 5.998-5.398 10.25-7.687l2-3c7.086-4 7.086-4 12-4l1-3 5-3 3-2c2.992-.399 5.993-.739 9-1v-2c10.662-4.83 23.278-9 35-9-1 5-1 5-3.063 8.625-3.727 8.418-1.959 16.656.063 25.375 3.118-.646 3.118-.646 4-3 8.4 0 8.4 0 12 6l1-2c3.438.125 3.438.125 7 1l2 4c2.6-2.029 2.6-2.029 1-6-4.084-4.861-7.012-6.337-13-8-3.803-3.608-4-4.546-4-10 2.738-1.11 2.738-1.11 6.313-1.75l3.55-.672L338 177l3-1c4.563-.375 4.563-.375 9 0l2 5 5-1 .664 2.746c3.891 14.948 10.78 24.587 25.336 30.254a87.968 87.968 0 0 0 9.992 1.383c3.705.76 5.879 2.52 9.008 4.617 3.797 1.247 3.797 1.247 7.75 2.125 7.047 1.672 7.047 1.672 9.25 3.875 3.325.406 6.66.743 10 1l-5-3-1-4h-2v-3h-4l-3-5c-2.825-1.275-2.825-1.275-6-2-5.578-1.422-5.766-1.61-9-7v-5h-2v-4l-2 1 1 4h-2l-.688 3c-1.312 3-1.312 3-4.625 3.563C385 204 385 204 380 201l-4-1v-2l-4-1c-5-5.34-5-5.34-5-8l-3-1c-1.653-4.958-2.102-9.908-1-15 4.125-2.5 4.125-2.5 9-4l3-2.188c3.95-2.386 7.446-2.536 12-2.812v-2c3.858-2.205 7.788-3.629 12-5l1-1c3.333-.041 6.667-.042 10 0v-2c2-1 2-1 4-1Z"/><path fill="#625f5b" d="M446 136c-1.3 6.5-4 7.797-9 12-3.573 3.91-6.264 7.44-9 12 0-3 0-3 1-5-3.028.536-3.028.536-6 2l-.25 2.938C422 163 422 163 417 164.75l-5 1.25-1 2h-6l1-6h2l1-2h-5c2.695-2.695 6.084-5 10-5v-2l-4 1v2l-4.875.375c-4.984.074-4.984.074-7.125 2.625l-5.625 1.5L387 162v2l-4 .813c-5.27 1.251-8.508 3.241-13 6.187l-3.5.563c-3.325 1.452-3.325 1.452-2.938 7.375.253 6.303.773 8.397 5.438 13.062l2.063 2.688c1.798 2.557 1.798 2.557 4.937 3.312v2l5 1 3 1.063c3.272 1.186 3.272 1.186 8 .937l.438-2.938C393 197 393 197 394 196l1-3h2v4h2l.875 4.25c2.75 6.145 5.068 6.383 11.313 7.898C414 210 414 210 417 213v3h4v3h2l2 4 5 3v1c-10.75-.75-10.75-.75-13-3-3.71-1.056-7.449-1.922-11.203-2.805C402 220 402 220 398.89 217.918c-3.217-2.134-5.089-2.444-8.891-2.73-11.318-1.491-21.116-6.124-27-16.188l-2.25-3.813c-2.127-5.088-2.933-9.738-3.75-15.187l-5 1-2-4c-5.554-.483-8.778-.089-14 2-3.66.394-7.328.735-11 1 1.105 4.506 1.65 6.65 5 10l3.25.75c5.04 1.68 7.456 4.132 10.75 8.25-.063 3.438-.063 3.438-1 6l-4-2v-3c-3.44-.753-3.44-.753-7-1l-1 3-4-6-2 2-1-2-5-1-2 4c-3-1-3-1-4.188-5.375-1.502-10.402-1.501-16.606 4.188-25.625l1-4c-10.917 2.473-21.551 4.97-32 9h-3v2l-5.313 1.438c-5.674 1.054-5.674 1.054-8.687 4.562l-3 1-1 2a276.787 276.787 0 0 1-8 3c-4.316 1.895-4.316 1.895-8 6l-5 2-1 3c-2.921 3.237-5.055 5.028-9 7a265.46 265.46 0 0 0-7 8c-3.522 4.025-7.031 8.033-10.688 11.938-3.44 4.219-5.263 8.045-7.312 13.062l-2.063 3.5c-8.608 15.55-9.72 37.055-7.937 54.5 1.72 2.947 1.72 2.947 4 5 3.905 5.76 6.55 11.494 9 18 2.07 5.176 4.145 7.626 7.938 11.625l3.214 3.414c3.772 3.922 5.676 5.892 10.848 7.961 4.714 3.429 4.714 3.429 6 6a332.323 332.323 0 0 0 9 5l4.438 2.625c9.485 4.938 18.382 7.447 28.562 3.375 1-6.333 1-6.333-2.438-11.313L277 346l-1-4-5-2a122.441 122.441 0 0 1-4-7c-2.837-3.937-5.569-7.569-9-11v-2h-2v-3l-3-1c-6-9.294-6-9.294-6-12l-3-1c-2.701-8.103-1.16-17.959 1-26h2l.938-3.313c2.238-7.769 9.303-9.677 16.57-11.63 4.01-.941 8.027-1.824 12.055-2.682 2.73-.596 5.46-1.192 8.19-1.79l3.853-.833c2.648-.587 5.284-1.229 7.914-1.893 3.528-.87 7.007-1.477 10.605-1.984l3.508-.508C314 252 314 252 320 252v-2c3.658-.715 7.325-1.38 11-2l1-1c2.853-.073 5.708-.084 8.563-.063l4.753.028L349 247c-4 3-4 3-9 3.938-5.32.656-5.32.656-9 5.062-.816 5.152-.816 5.152-1 10l3-6 2 1c-7.034 17.815-17.624 28.293-35 37l-4-1c-2.78-13.902-.392-25.813 7-38-8.133.927-15.783 2.291-23.559 4.867a208.079 208.079 0 0 1-7.601 2.328l-4.277 1.243-3.934 1.12c-4.027 1.6-6.643 3.304-9.629 6.442 1.24 4.958 3.54 7.54 6.688 11.563 4.811 6.314 8.767 12.348 12.312 19.437l1.617 2.988c2.692 5.067 4.337 8.375 4.758 14.2C282.791 333.303 295.329 336.74 305 339v1l-8.984.586c-3.3.289-3.3.289-7.016 2.414-1.502 4.506-.91 8.94-.742 13.652C288 360 288 360 285 364c-11.525 3.842-23.045-1.457-34-5l-5.207-1.477c-4.23-1.344-7.628-2.819-11.418-5.086l-3.102-1.816C229 349 229 349 229 347l-4-1c-7-7.233-7-7.233-7-11l-3.195-.82c-4.66-1.445-5.9-3.12-8.68-7.055l-2.305-3.18C202 321 202 321 201 317h-2a218.6 218.6 0 0 1-5-12l-1.18-2.906c-5.32-14.137-3.895-28.42-1.82-43.094l.512-3.781c1.136-7.925 2.41-15.252 6.488-22.219h2l.813-2.875c3.067-10.656 7.378-15.616 15.949-22.43 2.958-2.462 5.386-4.95 7.863-7.882C228 196 228 196 231 196l2-4c4.354-1.927 8.322-3.064 13-4v-2h3l1-3c3.26-1.908 6.5-3.177 10.063-4.438 3.715-1.474 5.881-3.085 8.937-5.562l5-1v-2h4l-1-4c3.25-3.063 3.25-3.063 7-6l3-3c3.954-.84 7.822-1.536 11.813-2.125l3.275-.512c2.97-.463 5.94-.913 8.912-1.363l3.022-.519c4.307-.696 8.637-1.07 12.978-1.481 0 4.212-2.071 5.142-5 8l-1 3c6.285 2.095 11.83.898 18-1h4l1-11c9.875-.125 9.875-.125 11 1 2.662.369 5.329.703 8 1v-2h5c-1.25 4.996-2.83 5.306-7 8l-1 3c6.957-.131 11.027-2.583 16.582-6.406 4.183-2.757 7.514-2.687 12.418-2.594l-2-5c0-4 0-4 2-6 5 1 5 1 8 2 0 6 0 6-3 9l-3 1c5.28.305 6.577.317 11-3h2l2-4c3.005-.575 6.017-1.142 9.055-1.508 3.235-.392 3.235-.392 6.945-2.492 3.25.375 3.25.375 6 1l-1 5c5.37-2.148 6.462-3.686 10-8 5.263-4 5.263-4 9-4Z"/><path fill="#8d877b" d="M414 153v2a178.941 178.941 0 0 1-8 4l3 1-1 3-2-1v2l2 1h-3v3h6l1-3 5.063-.813L422 163v-6c3-2 3-2 7-2-1.735 6.939-6.192 11.763-10.617 17.238-6.691 8.672-9.746 14.556-6.133 25.575 1.753 3.193 3.714 6.168 5.75 9.187v2l4 2a202.383 202.383 0 0 1 5.063 4.25c5.333 4.452 10.781 7.555 16.937 10.75l2 2 5 1c3 3 3 3 3 5h-8v2c-3.47-.458-6.674-.891-10-2a252.243 252.243 0 0 0-11 1.688l-3.308.564a405.072 405.072 0 0 0-18.38 3.623c-9.754 2.124-19.585 3.716-29.437 5.313l-4.893.794c-7.315 1.17-14.604 2.31-21.982 3.018v-1c-2.375-.054-4.75-.093-7.125-.125l-4.008-.07c-3.737.188-6.364.99-9.867 2.195h-6v2l-5.125.734c-13.634 1.998-26.896 4.357-40.145 8.22-7.392 2.13-7.392 2.13-11.73 1.046 8.75-4 8.75-4 11-4v-2l-3.395.035c-1.457.01-2.915.018-4.418.027l-4.394.036c-5.793-.15-7.641-1.32-10.793-6.098l-.875-4.188c-1.462-4.955-2.543-4.318-7.125-5.812-1.265-5.98.774-8.875 5-13h2v-2c9.385-5.96 17.985-9.76 29-11l1-2c2.713-.476 5.448-.83 8.188-1.125l4.542-.508c9.795-.842 9.795-.842 14.27 3.633l-1-4c4.361 3.27 4.607 3.867 5.688 8.875l.699 3.117c1.674 8.21 1.656 12.802-4.387 19.008a149.774 149.774 0 0 1-7 4l-4 3c7.942-.512 15.415-2.167 23.164-3.945C338.756 240 338.756 240 347 240l-3-5-.266-3.277L343 229c-3.09-.767-3.09-.767-6.75-.563-5.854-.154-8.76-.327-12.25-5.437l-2-2c-1.908-4.52-2.007-5.965-1-11 1.968-1.968 5.348-1.662 8-2-.895-3.882-.895-3.882-2.125-7.063C326 198 326 198 327 195c3 3 3 3 4 6l1-2c3.438.125 3.438.125 7 1l2 4c2.6-2.029 2.6-2.029 1-6-4.084-4.861-7.012-6.337-13-8-3.803-3.608-4-4.546-4-10 2.738-1.11 2.738-1.11 6.313-1.75l3.55-.672L338 177l3-1c4.563-.375 4.563-.375 9 0l2 5 5-1 .664 2.746c3.891 14.948 10.78 24.587 25.336 30.254a87.968 87.968 0 0 0 9.992 1.383c3.705.76 5.879 2.52 9.008 4.617 3.797 1.247 3.797 1.247 7.75 2.125 7.047 1.672 7.047 1.672 9.25 3.875 3.325.406 6.66.743 10 1l-5-3-1-4h-2v-3h-4l-3-5c-2.825-1.275-2.825-1.275-6-2-5.578-1.422-5.766-1.61-9-7v-5h-2v-4l-2 1 1 4h-2l-.688 3c-1.312 3-1.312 3-4.625 3.563C385 204 385 204 380 201l-4-1v-2l-4-1c-5-5.34-5-5.34-5-8l-3-1c-1.653-4.958-2.102-9.908-1-15 4.125-2.5 4.125-2.5 9-4l3-2.188c3.95-2.386 7.446-2.536 12-2.812v-2c3.858-2.205 7.788-3.629 12-5l1-1c3.333-.041 6.667-.042 10 0v-2c2-1 2-1 4-1Z"/><path fill="#b4c8da" d="M318 164c-1 5-1 5-3.063 8.625-3.727 8.418-1.959 16.656.063 25.375 3.118-.646 3.118-.646 4-3h5l1 3h2c1.273 3.294 2.143 6.572 3 10-1 1-1 1-4.5 1.25l-3.5.75c-1.306 6.532.354 9.39 3.813 14.875 4.541 3.028 8.738 2.686 14.105 2.691C343 228 343 228 345 232l2 8-3.254.61c-4.895.92-9.789 1.843-14.683 2.765l-5.12.96-4.97.938-4.555.857a268.857 268.857 0 0 0-9.166 1.978C301 249 301 249 296 249c2.869-3.138 5.487-5.302 9.125-7.563 6.213-3.908 7.665-7.29 7.875-14.437-1.252-4.088-1.252-4.088-3-8a302.11 302.11 0 0 1-2-7v2l-1 2-1.27-2.5c-4.282-3.921-8.964-2.892-14.418-2.5l-3.244.137c-2.7.154-5.389.494-8.068.863l-1 3c-4.563.688-4.563.688-9 1v-2c-2.195-.425-4.391-.84-6.594-1.223-5.968-1.362-11.673-3.567-17.43-5.632-8.642-2.488-12.94 4.017-18.851 9.542-2.395 2.394-2.395 2.394-4.125 6.313l-2.25 2c-6.083 6.636-9.167 15.845-12.75 24l-1.508 2.715C200.795 264.257 198.868 285.17 204 298l3 3a355.075 355.075 0 0 1 4 8l2.625 4.625c1.903 3.506 3.127 6.632 4.375 10.375h2c2.011 2.324 4.01 4.658 6 7a206.108 206.108 0 0 0 5 4l1 2 5 3a317.62 317.62 0 0 1 5 6c4.031 3.024 7.306 4.274 12 6l8 4c4.59 1.836 6.789 2 12 2 1.639-3.873 2-6.795 2-11l-4-2-1-3h-2a1197.096 1197.096 0 0 1-7-8l-2.813-2.25C257 330 257 330 255 326l-2-1v-3h-2l-2-6h-2c-2-3-2-3-3-8h-2c-1.101-5.505-1.109-10.732-1.063-16.313l.014-3.11c.012-2.526.03-5.052.049-7.577h2l.375-4.25c.981-7.458 3.411-9.853 9.625-13.75l5-1v-2l4-3v-1h12v2c-4.596 2.155-9.23 4.154-13.916 6.104-7.287 3.158-9.551 5.83-13.084 12.896h-2c-2.575 15.532-2.575 15.532 3 29l3.063 5.125c2.28 4.77 2.28 4.77 4.937 5.875v3h2l1 4 3 1a106.4 106.4 0 0 1 4.625 5.875l2.414 3.242C271 337 271 337 272 340l4 2a250 250 0 0 1 4 6l3 2c1.03 8.128 1.03 8.128-2.438 11.063-12.071 3.176-23.63-1.161-33.562-8.063l-4.188-2.5c-3.453-2.265-5.916-4.604-8.812-7.5l-2.8-1.316c-5.741-3.021-9.774-8.022-14.2-12.684l-2.938-2.875c-2.702-4.095-3.763-8.273-4.972-13.004-1.184-3.39-2.79-5.4-5.09-8.121l-1.063-3.25c-.648-3.096-.648-3.096-3.937-3.75-7.336-14.672.633-43.295 7.445-56.883 1.018-2.04 2.013-4.09 2.985-6.152 2.645-5.54 4.921-9.857 9.57-13.965a367.69 367.69 0 0 0 4.375-4.813l2.344-2.609a464.813 464.813 0 0 0 6.156-7.14C235 203 235 203 238 202l2.75-3.313c3.233-3.668 5.998-5.398 10.25-7.687l2-3c7.086-4 7.086-4 12-4l1-3 5-3 3-2c2.992-.399 5.993-.739 9-1v-2c10.662-4.83 23.278-9 35-9Z"/><path fill="#b4c8da" d="M157 300c4.292 4.292 4.423 4.676 4.813 10.25.888 6.903 3.296 9.704 8.187 14.75a268.79 268.79 0 0 1 4.188 6.75c3.127 4.999 6.35 9.005 10.625 13.063 10.684 10.209 18.274 23.138 26.226 35.503 1.604 2.953 1.604 2.953 3.961 2.684.716 2.989 1.381 5.99 2 9 2.951 2.951 11.158 1.384 15 1 5.122-2.285 5.122-2.285 9-5h2c1.825-8.895 1.416-14.996-3-23v-3l3.563 1.25c5.561 1.79 11.149 3.3 16.8 4.773 2.943.79 5.858 1.681 8.762 2.602 5.1 1.439 10.03 2.161 15.285 2.75C287 374 287 374 288 377l-2.816.332C270.138 379.096 270.138 379.096 259 388h-2l-1.5 5-1.5 5h-2l-2 5c-2.625 2.313-2.625 2.313-5 4 4.885.192 7.315-.126 12-2a215.372 215.372 0 0 0 3.297-6.84c3.479-7.416 6.256-13.048 14.703-15.16 3.333-.04 6.667-.044 10 0-1.33 5.322-4.075 7.201-8 11-3.277 3.673-6.484 7.312-9.438 11.25-5.214 5.596-11.102 7.217-18.562 7.75v2l-7 1 12 1v2l3.008-.656c23.032-4.72 23.032-4.72 30.742-.094 3.41 4.167 4.25 6.291 4.25 11.75-5.009 5.009-6.104 4.925-13 4-4.827-2.054-9.42-4.446-14-7v2h-3v2c-5.048.708-9.903 1.106-15 1v-3c-7.103-3.551-15.303-2.37-23.125-2.375l-5.328-.074c-9.18-.021-16.351.177-24.547 4.449-5.689 2.42-10.85 2.5-17 2-3.488-2.677-3.893-4.24-4.5-8.563C173 421 173 421 177 417l5 1v-3h-9v-1c8.003-.095 15.772.238 23.75 1 15.768 2.036 15.768 2.036 31.25 0l-2.5-1.813C223 411 223 411 223 408l-4.125-1.375c-10.427-3.476-14.539-11.008-18.313-20.875-1.986-5.036-3.757-7.068-8.562-9.75v-4h-2l-1-2-2 1a1412.39 1412.39 0 0 1-4-5.875l-2.25-3.305C179 359 179 359 179 357c-2.327-.69-4.66-1.355-7-2-3.094-3.094-1.707-5.719-1.188-9.938.928-13.657-6.018-19.5-15.343-28.492-5.11-5.32-6.469-9.279-6.469-16.57 2.096-2.096 5.437-.565 8 0Z"/><path fill="#ebe4c8" d="M414 153v2a178.941 178.941 0 0 1-8 4l3 1-1 3-2-1v2l2 1h-3v3h6l1-3 5.063-.813L422 163v-6c3-2 3-2 7-2-1.735 6.939-6.192 11.763-10.617 17.238-6.691 8.672-9.746 14.556-6.133 25.575 1.753 3.193 3.714 6.168 5.75 9.187v2l4 2a252.758 252.758 0 0 1 6.438 4.813l3.37 2.582c2.938 2.398 5.56 4.88 8.192 7.605l2.813 2.813L445 231l-4.129-.035-5.433-.028-5.38-.035c-4.171.08-7.948.501-12.058 1.098-12.325.428-24.583.053-36.875-.875l-3.314-.238c-7.688-.64-7.688-.64-8.811-2.887l-2.938-1c-7.174-3.532-12.31-9.665-17.062-16l.063-4.125L349 203l-4-2a125.78 125.78 0 0 1-4.313-4.5c-3.77-3.894-6.37-5.25-11.687-6.5-3.803-3.608-4-4.546-4-10 2.738-1.11 2.738-1.11 6.313-1.75l3.55-.672L338 177l3-1c4.563-.375 4.563-.375 9 0l2 5 5-1 .664 2.746c3.891 14.948 10.78 24.587 25.336 30.254a87.968 87.968 0 0 0 9.992 1.383c3.705.76 5.879 2.52 9.008 4.617 3.797 1.247 3.797 1.247 7.75 2.125 7.047 1.672 7.047 1.672 9.25 3.875 3.325.406 6.66.743 10 1l-5-3-1-4h-2v-3h-4l-3-5c-2.825-1.275-2.825-1.275-6-2-5.578-1.422-5.766-1.61-9-7v-5h-2v-4l-2 1 1 4h-2l-.688 3c-1.312 3-1.312 3-4.625 3.563C385 204 385 204 380 201l-4-1v-2l-4-1c-5-5.34-5-5.34-5-8l-3-1c-1.653-4.958-2.102-9.908-1-15 4.125-2.5 4.125-2.5 9-4l3-2.188c3.95-2.386 7.446-2.536 12-2.812v-2c3.858-2.205 7.788-3.629 12-5l1-1c3.333-.041 6.667-.042 10 0v-2c2-1 2-1 4-1Z"/><path fill="#625f5b" d="m365.938 333.688 3.902.011C373 334 373 334 375 336c.107 5.024-1.54 8.08-4.25 12.125-7.142 10.699-11.158 23.523-12.188 36.313-.948 7.696-4.71 10.372-11.562 13.562h-6l-1-3-6 3v-3l-2.773.07-3.602.055-3.586.07C321 395 321 395 319 393l-3.938-1.375C311 390 311 390 308 386l1-5h2v-4h2v-3h2l1-4 1-1c.373-4.627.373-4.627-1-7 .688-3.063.688-3.063 2-6l4-1c.416-3.324.416-3.324-3-5l1-2-5-1-4-3c-3.583 4.777-2.947 7.137-2.785 12.887-.444 6.439-4.47 11.12-8.215 16.113h-2v-2l-4.813-.375c-7.172-.664-14.227-1.509-21-4.063-3.767-1.405-7.194-2.225-11.125-3-5.77-1.167-10.77-2.916-16.062-5.562 4.883-1.22 7.422.123 12.004 1.875 8.9 3.342 18.628 6.248 27.996 3.125 2.494-3.741 2.06-5.449 1.813-9.875-.108-5.808.032-8.73 5.187-12.125l1-1a149.67 149.67 0 0 1 6.508.008c27.417.772 27.417.772 54.12-4.594 4.379-1.416 7.734-1.787 12.31-1.726Z"/><path fill="#b9b3a2" d="M71 340c7.305 3.917 12.374 8.062 18.063 14.188 17.36 18.01 38.616 27.071 63.124 30.812 9.815 1.688 18.829 4.698 27.813 9l3.113 1.41 3.262 1.527 3.023 1.403C192 400 192 400 195 405l2 2-1 6h-13v-2h-4v-2l-5-1-2-5-1 2c-3.725-.184-7.36-.476-11.063-.875l-3.166-.316c-2.591-.26-5.181-.534-7.771-.809v2l4.063.313c7.06.817 14.03 1.992 20.937 3.687v1l-3.84-.219-5.097-.281-5.028-.281c-4.687-.204-9.345-.257-14.035-.219v-2l-4 1c-3.083.07-6.167.085-9.25.063l-4.953-.028L124 408v-1l17-1-5.563-1.313c-4.738-1.181-8.962-2.724-13.437-4.687-8.228-2.769-16.571-4.942-25-7l-3-1c-2.835.062-5.67.197-8.5.375l-4.594.273c-3.81.193-3.81.193-6.906 1.352-16.323 1.327-16.323 1.327-21-5-.93-3.004-.93-3.004-1-6 2.555-1.513 5.134-2.999 7.805-4.297C70.755 372.866 78.952 365.033 82 353l-3.063.188C72.709 352.89 67.31 350.57 63 346c0-8.133.598-7.708 8-6Z"/><path fill="#88add3" d="M128 324c3 0 3 0 5.938 4.75l1.464 2.672c1.737 3.022 1.737 3.022 5.598 6.578a831.477 831.477 0 0 1 3 8c2.818 5.05 6.909 6.53 12.113 8.746C166.354 359.195 172.845 364.59 180 373l2.938 3.25c6.627 8.115 11.683 16.426 15.64 26.133 1.334 3.05 1.334 3.05 5.422 4.617l-2-5h2l-2.5-3.75C199 394 199 394 199 390h-2l-2-5 3-3 .813 2.938c.858 3.38.858 3.38 4.187 4.062a356.681 356.681 0 0 1 4 8c3.557 5.241 7.548 6.906 13.223 9.375C223 408 223 408 226 413c4.093 1.295 4.093 1.295 8 2v1c-2.104.172-4.208.337-6.313.5l-3.55.281c-9.845.52-19.517.001-29.325-.781A4473.823 4473.823 0 0 1 182 415l.001 3h-5l-3 1c-.512 5.886-.616 8.178 3 13 8.102.8 13.657-.671 21-4 8.133-3.317 16.988-2.328 25.625-2.313l5.453-.048 5.211-.002 4.772-.01C243 426 243 426 247 429v3l3-.5c4.045-.506 7.928-.571 12-.5v-2h3v-2c3.925.961 6.935 1.96 10.375 4.125 4.522 2.339 7.599 2.392 12.625 1.875 3.398-2.69 3.398-2.69 3-6.375-1.161-4.21-2.714-5.832-6-8.625l-1-1c-6.905-.43-13.585-.194-20.375 1.125-7.704 1.371-14.972.152-22.625-1.125l1-2c3.563-.125 3.563-.125 7 0v-2c2.038-.683 4.108-1.27 6.188-1.813 5.317-1.567 8.296-2.767 11.812-7.187l3.875-3.813c5.36-5.44 10.189-10.627 14.125-17.187a410.07 410.07 0 0 0-6.75.75l-3.797.422c-3.951.63-3.951.63-7.453 4.828h-2l-1 5c-1.453 2.79-1.453 2.79-3.25 5.625l-1.766 2.852c-4.327 5.502-8.452 5.855-14.984 5.523l2.313-2.188c3.025-2.959 3.025-2.959 5.687-7.812h2l1-5 2-5h2l1-3c9.544-6.406 16.46-8 28-8l1-2c8.259 5.082 13.857 10.444 18.938 18.875 3.525 4.748 5.343 5.336 11.062 6.125v1l-3.105-.176-4.082-.137-4.043-.175c-4.605.596-5.844 2.006-8.77 5.488l-2 1 .438-3.176.562-4.137.563-4.113c.498-3.47.498-3.47.437-6.574-6.786-.83-9.135 1.509-14 6h-3c-1.244 4.474-1.244 4.474-2 9h2v2h2l2.063 2.313c3.695 3.38 7.173 4.278 11.937 5.687l4 2c2.993.394 5.993.735 9 1v6h-12v5c-1.715 2.64-1.715 2.64-3.938 5.25l-2.214 2.64c-4.026 4.596-9.05 3.797-14.848 3.11-3.688-2.438-3.688-2.438-7-5-7.007-1.569-7.007-1.569-13 2-6.289.722-11.37-.37-16-5-6.139-.372-12.289-.372-18.438-.438l-5.224-.138c-10.147-.09-16.201.413-24.338 6.576-6.866 2.747-14.789 4.204-21.188-.188C167.375 428.375 169 424.625 169 413h-47l1-5a84.957 84.957 0 0 1 11.563-.813l3.31-.076c2.709-.059 5.418-.088 8.127-.111v2l5.813-.563c6.231-.491 11.989-.18 18.187.563l-4.594-.805-5.906-1.07-5.906-1.055L149 405v-2c2.917.141 5.834.288 8.75.438l4.922.246C167 404 167 404 171 405l1-3h1l1 5 5 2v2h4v2h13c.707-6.236.707-6.236-4-10-1.341-3.33-2.673-6.664-4-10-8.403-17.13-21.238-28.131-38.438-36-9.408-4.535-14.46-13.568-17.625-23.25-.915-3.151-.915-3.151-3.937-6.75v-3Z"/><path fill="#8d877b" d="M298 109c4.56 1.52 5.361 4.738 7.625 8.875l2.414 4.367C310.93 127.78 311 129.302 311 136h17v1l-3.324.113-4.363.2-4.325.175c-4.377.29-4.377.29-8.988 3.512a261.46 261.46 0 0 1-10.688 2.438C288.808 144.995 282.07 147.04 275 150c-5.677 1.295-7.618-.26-11.5-4.188l-2.277-2.476c-2.777-2.918-5.868-5.123-9.223-7.336 1.797 4.031 1.797 4.031 4.625 6.938C259 146 259 146 259 151l2 4-3.77 1.941c-13.49 7.012-25.159 13.63-36.23 24.059-5.862-7.816-6.508-11.545-6-21 2.878-2.878 5.04-2.137 9-2h4l-2.563-2.313L223 153l1-3c4.021-.56 7.935-1 12-1l-4-3v-6c4.75-1.313 4.75-1.313 10-2l4-1-1.5-2.75C243 131 243 131 243 127c5.352 1.07 9.967 2.92 15 5-1.084-5.113-2.233-10.078-4-15 6.492 3.246 12.44 7.337 18 12l-1-2.5c-1.133-3.967-1.142-7.394-1-11.5 5 3 5 3 7.563 5.125 2.484 2.17 2.484 2.17 6.437 2.875v-13c5.92 0 12.737 16.645 15.375 21.188l2.523 4.417c1.703 3.414 1.703 3.414 4.102 4.395l-1.242-2.633-1.633-3.492-1.617-3.445c-3.34-7.599-3.692-13.163-3.508-21.43Z"/><path fill="#625f5b" d="M446 136c-1.3 6.5-4 7.797-9 12-3.573 3.91-6.264 7.44-9 12 0-3 0-3 1-5-3.028.536-3.028.536-6 2l-.25 2.938C422 163 422 163 417 164.75l-5 1.25-1 2h-6l1-6h2l1-2h-5c2.695-2.695 6.084-5 10-5v-2l-4 1v2l-4.875.375c-4.984.074-4.984.074-7.125 2.625l-5.625 1.5L387 162v2l-4 .813c-5.27 1.251-8.508 3.241-13 6.187l-3.5.563c-3.325 1.452-3.325 1.452-2.938 7.375.253 6.303.773 8.397 5.438 13.062l2.063 2.688c1.798 2.557 1.798 2.557 4.937 3.312v2l5 1 3 1.063c3.272 1.186 3.272 1.186 8 .937l.438-2.938C393 197 393 197 394 196l1-3h2v4h2l.875 4.25c2.75 6.145 5.068 6.383 11.313 7.898C414 210 414 210 417 213v3h4v3h2l2 4 5 3v1c-10.75-.75-10.75-.75-13-3-3.71-1.056-7.449-1.922-11.203-2.805C402 220 402 220 398.89 217.918c-3.217-2.134-5.089-2.444-8.891-2.73-11.318-1.491-21.116-6.124-27-16.188l-2.25-3.813c-2.127-5.088-2.933-9.738-3.75-15.187l-5 1-2-4c-5.554-.483-8.778-.089-14 2-11.504 2.496-11.504 2.496-13 1-.365-8.635-.365-8.635 2-11 2.332-.34 4.666-.672 7-1l3-2c6.235-3.118 6.235-3.118 10.25-2.5 5.313.708 9.249.5 13.75-2.5l1 3h-2l1 8h3l-.563-4.75C362 162 362 162 366 159.687l5-1.687a555.398 555.398 0 0 0 8-5c3.473-1.158 6.36-1.069 10-1l-2-5c0-4 0-4 2-6 5 1 5 1 8 2 0 6 0 6-3 9l-3 1c5.28.305 6.577.317 11-3h2l2-4c3.005-.575 6.017-1.142 9.055-1.508 3.235-.392 3.235-.392 6.945-2.492 3.25.375 3.25.375 6 1l-1 5c5.37-2.148 6.462-3.686 10-8 5.263-4 5.263-4 9-4Z"/><path fill="#88add3" d="m443 348 2 1-2.313 2.188c-3.025 2.959-3.025 2.959-5.687 7.812a120.888 120.888 0 0 1-5.125 4.375c-4.123 3.6-6.348 5.836-5.875 11.625 3.84 3.84 11.646 2.412 16.951 2.479 7.93.199 13.355.827 19.049 6.521-1.35 5.4-2.862 5.292-8 7-2.97.481-5.95.895-8.938 1.25-7.864 1.218-12.097 2.46-17.062 8.75.657 4.506.657 4.506 5.563 7.125 5.599 4.89 5.59 6.69 4.437 13.875-2.48 6.07-4.305 10.368-11 11.938-6.147.076-10.332-1.62-16-3.938l-4.625-1.438c-5.92-2.114-11.101-4.94-16.223-8.593-13.752-9.795-28.006-8.805-44.027-5.969-11.54 2-11.54 2-17.125 2 0-6.034 1.105-6.485 6.008-9.508C340.819 403.594 348.412 400 355 400l-1 6 2.813-1.5c10.807-3.871 20.975-.585 31.187 3.5l5 .875c4.995 1.124 6.286 1.968 10 5.125 13.4 5.972 13.4 5.972 26.875 3l2.125-2h2c-3.995-3.995-8.067-6.872-12.734-10-2.266-2-2.266-2-2.266-6 7.87-8.396 18.266-10.266 29.129-12.29 2.98-.475 2.98-.475 4.871-2.71-6.684-1.67-13.83-.756-20.69-.346-3.47.092-3.47.092-9.31-.654-2.309-4.027-2.309-4.027-3-8l-3.5 4.188c-3.723 4.215-7.551 7.072-12.5 9.812l2.5 2.188C409 394 409 394 409 399h-24c1.67-5.01 6.33-5.286 11-7l-2.813.5c-5.78.907-5.78.907-7.187-.5-2.217-11.628-2.217-11.628 1.938-16.313L391 374c3.433 3.247 5.516 5.86 8 10 11.177-4.47 18.76-12.723 26.668-21.54 4.963-5.154 10.545-9.284 16.332-13.46l1-1Z"/><path fill="#625f5b" d="m307 214-1-4c4.361 3.27 4.607 3.867 5.688 8.875l.699 3.117c1.005 4.931 1.62 7.973.613 13.008-2.8.969-2.8.969-6.313 1.5-5.631.858-7.355 1.939-10.687 6.5l-5 3-4.375 3c-6.777 4.396-11.623 6.413-19.75 6.313l-4.133-.012c-5.165-.415-8.074-1.633-11.742-5.301l-.813-4.063c-1.528-5.066-2.508-4.411-7.187-5.937-1.265-5.98.774-8.875 5-13h2v-2c9.385-5.96 17.985-9.76 29-11l1-2c2.713-.476 5.448-.83 8.188-1.125l4.542-.508c9.795-.842 9.795-.842 14.27 3.633Z"/><path fill="#b4c8da" d="m314 172-1 5c-.265 7.336.342 13.851 2 21 3.118-.646 3.118-.646 4-3h5l1 3h2c1.273 3.294 2.143 6.572 3 10-1 1-1 1-4.5 1.25l-3.5.75c-1.306 6.532.354 9.39 3.813 14.875 4.541 3.028 8.738 2.686 14.105 2.691C343 228 343 228 345 232l2 8-3.254.61c-4.895.92-9.789 1.843-14.683 2.765l-5.12.96-4.97.938-4.555.857a268.857 268.857 0 0 0-9.166 1.978C301 249 301 249 296 249c2.869-3.138 5.487-5.302 9.125-7.563 6.213-3.908 7.665-7.29 7.875-14.437-1.252-4.088-1.252-4.088-3-8a382.608 382.608 0 0 1-2-7c-.752-3.278-.752-3.278-4-5v-2h-3c-2.084-2.601-4.069-5.283-6-8-1.071-1.39-2.142-2.78-3.246-4.21-1.053-1.375-2.106-2.75-3.192-4.165-1.07-1.39-2.142-2.78-3.246-4.21L283 181c1-2 1-2 4.125-2.375 3.93-.384 3.93-.384 7.063-2.563C300.368 172.72 306.98 172 314 172Z"/><path fill="#625f5b" d="M197 207c-1.02 3.403-2.192 6.358-3.875 9.5-9.087 19.242-13.177 45.46-10.125 66.5-2.256-2.776-4.392-5.562-6.438-8.5-3.115-3.935-6.17-6.85-9.875-10.188C158.129 255.96 151 243.162 151 231c1.758-2.5 1.758-2.5 4.125-5l2.32-2.5c9.822-9.612 25.521-16.5 39.555-16.5Z"/><path fill="#dce1e5" d="M420 374c2 3 2 3 3 8 4.354.327 8.348.37 12.688.188a893.03 893.03 0 0 1 7.074-.208l3.186-.128c3.33.161 5.95.96 9.052 2.148-4.807 3.606-8.58 4.232-14.438 5.5-6.048 1.311-10.23 2.301-15.562 5.5h-2l-2 4-2 1c2.258 4.516 3.856 5.46 8.063 8.063 5.828 3.61 5.828 3.61 6.937 6.937-7.658 7.007-14.348 5.625-23.926 3.125-3.26-1.193-5.725-2.714-8.574-4.688-5.733-3.966-10.635-4.579-17.5-5.437l-3-2c-7.983-2.245-16.375-3.813-24 0h-3c1.077-7 3.632-8.372 10-11l1-1c3.5-.25 3.5-.25 7 0l1 3 6-1-3-5c0-5.966 3.276-6.85 8-10h2l-.188 5.438L386 392c3.236 1.471 3.236 1.471 7-1l4 1-8.496 3.71c-2.625 1.04-2.625 1.04-3.504 3.29h24c-1.553-6.15-1.553-6.15-6-10l2.195-1.504c5.733-4.028 10.486-7.892 14.805-13.496Z"/><path fill="#b9b3a2" d="M173 414c8.003-.095 15.772.238 23.75 1 15.226 1.36 30.014 1.056 45.25 0v1l12 1v2l3.008-.656c23.032-4.72 23.032-4.72 30.742-.094 3.41 4.167 4.25 6.291 4.25 11.75-5.009 5.009-6.104 4.925-13 4-4.827-2.054-9.42-4.446-14-7v2h-3v2c-5.048.708-9.903 1.106-15 1v-3c-7.103-3.551-15.303-2.37-23.125-2.375l-5.328-.074c-9.18-.021-16.351.177-24.547 4.449-5.689 2.42-10.85 2.5-17 2-3.488-2.677-3.893-4.24-4.5-8.563C173 421 173 421 177 417l5 1v-3h-9v-1Z"/><path fill="#dce1e5" d="M414 153v2a178.941 178.941 0 0 1-8 4l3 1-1 3-2-1v2l2 1h-3v3h6l1-3 5.063-.813L422 163v-6c3-2 3-2 7-2-1.607 6.43-5.352 11.352-10 16v-4l-2.875 2C413 171 413 171 411 171v3h-5l-2 4c-1 2-1 2-4 4-.354 3.118-.354 3.118 2 5h-2v6h2v2l-5 1v-3l-2 1 1 4h-2l-.688 3c-1.312 3-1.312 3-4.625 3.563C385 204 385 204 380 201l-4-1v-2l-4-1c-5-5.34-5-5.34-5-8l-3-1c-1.653-4.958-2.102-9.908-1-15 4.125-2.5 4.125-2.5 9-4l3-2.188c3.95-2.386 7.446-2.536 12-2.812v-2c3.858-2.205 7.788-3.629 12-5l1-1c3.333-.041 6.667-.042 10 0v-2c2-1 2-1 4-1Z"/><path fill="#8d877b" d="m340.563 246.938 4.753.027L349 247c-4 3-4 3-9 3.938-5.32.656-5.32.656-9 5.062-.816 5.152-.816 5.152-1 10l3-6 2 1c-7.034 17.815-17.624 28.293-35 37l-4-1c-2.78-13.902-.392-25.813 7-38-9.42 1.073-18.016 3.022-27 6-4.22 1.287-8.442 2.57-12.664 3.852-3.415 1.017-3.415 1.017-6.336 3.148h-3c2.791-5.582 6.413-6.436 12-9l3.242-1.523c4.358-1.713 8.604-2.632 13.195-3.54 4.6-.918 9.168-1.837 13.715-2.988 3.658-.902 7.244-1.549 10.973-2.074l3.508-.508C314 252 314 252 320 252v-2c3.658-.715 7.325-1.38 11-2 2.09-2.09 6.86-1.083 9.563-1.063Z"/><path fill="#1c1a18" d="M216 340c4 1 4 1 5 4 2.644 1.058 5.298 2.1 8 3v2a496.63 496.63 0 0 0 6 2 206.452 206.452 0 0 1 6.625 3.875c9.094 5.29 18.096 7.922 28.375 10.125l4.438 1.438c7.75 2.177 15.613 3.341 23.562 4.562v2c6.014-6.014 9.087-10.284 8.813-18.875-.067-4.99.252-7.682 4.187-11.125l2.813 1.938c3.03 2.148 3.03 2.148 6.187 3.062v2l3 3c-1 2-1 2-5 4-1.31 3.719-1.31 3.719 0 7 0 5 0 5-3 10h-2v3h-2v4h-2c-.707 6-.707 6 3 9a249.186 249.186 0 0 0 8 3l1 1h3.75c4.25 0 4.25 0 9.25 1 0 3 0 3-4.75 6.313C324 404 324 404 320 402l-4.25-.938c-6.556-2.846-8.927-7.225-12.75-13.062-7.958-10.553-16.01-13.386-28.621-15.297-14.632-2.35-28.636-7.144-41.379-14.703v2l4 2v5l-1-2-4 1h-5v-2h-2l-1-7h-2a238.397 238.397 0 0 1-4-9l-2-4v-4Z"/><path fill="#dce1e5" d="M87 359c5 2 5 2 8.375 5.5 9.421 9.722 20.79 15.645 33.625 19.5l2.78.97c3.277 1.048 6.493 1.771 9.868 2.432l3.797.76c2.612.515 5.224 1.028 7.836 1.54 13.292 2.667 13.292 2.667 18.719 5.298v3c2.925.731 5.852 1.455 8.793 2.121 4.385 1.202 7.674 3.039 11.207 5.879l-1 4h6l-1 3c-2.941.293-2.941.293-6.563.188l-3.628-.083L183 413v-2h-4v-2l-5-1-2-5-1 2c-18.308-.147-37.309-4.552-54-12v-2l16 2v-2l-3.438-.438C126 390 126 390 125 389c-3.33-.37-6.663-.704-10-1v-2l-4.188.125C85.16 386.159 85.16 386.159 82 383c-.524-7.543.683-12.265 4-19l1-5Z"/><path fill="#413d37" d="M313.875 340.813C317 342 317 342 319 345c5.863 2.063 9.869 2.226 16 1l3 2c-.813 4.625-.813 4.625-2 9l-4-1 .563 3.875C333 364 333 364 332 366h2l1-3 2 1c-4.146 4.146-5.566 4.688-11 6-5.636 1.295-5.636 1.295-8 7h-2l2 5c-1.875 3.313-1.875 3.313-4 6h5l1 3h3v2h5l-1 2c-6 0-6 0-8-2l-3.938-1.375C311 390 311 390 308 386l1-5h2v-4h2v-3h2l1-4 1-1c.373-4.627.373-4.627-1-7 .688-3.063.688-3.063 2-6l4-1c.416-3.324.416-3.324-3-5l1-2-5-1-4-3c-3.583 4.777-2.947 7.137-2.785 12.887-.444 6.439-4.47 11.12-8.215 16.113h-2v-2l-4.813-.375c-7.172-.664-14.227-1.509-21-4.063-3.767-1.405-7.194-2.225-11.125-3-5.77-1.167-10.77-2.916-16.062-5.562 4.883-1.22 7.422.123 12.004 1.875 8.9 3.342 18.628 6.248 27.996 3.125 2.494-3.741 2.06-5.449 1.813-9.875-.108-5.808.032-8.73 5.187-12.125 3.701-3.701 17.085-.986 21.875-.188Z"/><path fill="#413d37" d="m274 170 2 1-2 1v-2Zm0 3c-3 3-3 3-6 3l-1 3a199.717 199.717 0 0 1-9 4c-2.683 1.3-5.35 2.634-8 4l-5.063 2.5L241 192l1 4-3 .875-3 1.125v2h2v2h-5v2l-2.5 1.125c-6.495 3.48-10.78 8.073-13.5 14.875l-2.25 2.125c-6.125 6.404-9.176 14.51-11.75 22.875l-2 4a267.362 267.362 0 0 0-1.563 9.625c-1.34 9.18-1.34 9.18-2.437 11.375a320.297 320.297 0 0 0-.188 10.938l-.037 3.017c-.018 9.533.981 18.434 5.35 27.045 2.875 5.722 2.875 5.722 2.875 9h2c3 4 3 4 3 7h2c1.339 1.662 2.671 3.33 4 5l2.375 1.875C221 336 221 336 223.75 339.313c5.27 5.98 11.122 10.214 18.25 13.687v2h3l-1 2c-1.939-.956-3.876-1.915-5.813-2.875l-3.269-1.617C232 351 232 351 229 349v-2l-4-1c-7-7.233-7-7.233-7-11l-3.195-.82c-4.66-1.445-5.9-3.12-8.68-7.055l-2.305-3.18C202 321 202 321 201 317h-2a218.6 218.6 0 0 1-5-12l-1.18-2.906c-5.32-14.137-3.895-28.42-1.82-43.094l.512-3.781c1.136-7.925 2.41-15.252 6.488-22.219h2l.813-2.875c3.067-10.656 7.378-15.616 15.949-22.43 2.958-2.462 5.386-4.95 7.863-7.882C228 196 228 196 231 196l2-4c4.354-1.927 8.322-3.064 13-4v-2h3l1-3c3.26-1.908 6.5-3.177 10.063-4.438 3.691-1.465 5.992-2.963 8.937-5.562 2-1 2-1 5 0Zm-54 41 1 2-2-1 1-1Z"/><path fill="#8d877b" d="M326 195c4 3 4 3 5 6l1-2c3.438.125 3.438.125 7 1l2 4 4-4c4 3 4 3 4.418 6.793.712 5.148 2.3 6.849 5.894 10.52l2.926 3.05c3.789 3.617 6.864 5.678 11.762 7.637v2l4.625-.063c4.241-.005 8.4.198 12.625.563 12.482.97 25.355 1.31 37.75-.5 3.145-.066 6.292-.085 9.438-.063l4.87.028L443 230c-.794-3.656-.794-3.656-6-5l-2-4 4.625 2.875c3.74 2.259 7.206 3.803 11.375 5.125 3 3 3 3 3 5h-8v2c-3.47-.458-6.674-.891-10-2a252.22 252.22 0 0 0-11 1.688l-3.295.562a432.414 432.414 0 0 0-18.767 3.688c-8.667 1.878-17.376 3.379-26.125 4.812l-4.053.676C356.18 248.09 356.18 248.09 350 245c6.147-3.073 12.706-3.32 19.473-4.219 4.482-.458 4.482-.458 7.527-2.781h3v-2c-2.327-.69-4.66-1.355-7-2l-2-2c-4.31-.583-4.31-.583-8 1-2.143.125-4.29.176-6.438.188l-3.558.042C350 233 350 233 348 231l1-4 5-1-1-5-8 1v-3l-4-1-2-5-3-1c-1.38-7.241-1.38-7.241 0-10h-3v2c-2.938 0-2.938 0-6-1-.875-4.063-.875-4.063-1-8Z"/><path fill="#625f5b" d="M211 341c8.898 7.58 8.898 7.58 10 12.125l1 3.875h2l-.063 3.438L225 364c3.812.805 7.123 1 11 1-.476-4.054-.476-4.054-3-5v-2c7.576 2.306 7.576 2.306 9 8l1.563 3.188c2.262 6 2.815 13.181-.563 18.812-7.855 5.581-15.332 7.96-25 6-3.404-4.538-3.937-7.471-5-13l-.957-4.36c-1.276-6.898-1.99-13.786-2.668-20.765l-.406-4.055c-.328-3.273-.65-6.546-.969-9.82 2 2 2 2 3 7v-8Z"/><path fill="#88add3" d="M347 171v2l3-2h4l2 5 2-1 4 11 2-1 1 3 4 4 2.063 2.688c1.798 2.557 1.798 2.557 4.937 3.312v2l5 1 3 1.063c3.272 1.186 3.272 1.186 8 .937l.438-2.938C393 197 393 197 394 196l1-3h2v4h2l.875 4.25c2.75 6.145 5.068 6.383 11.313 7.898C414 210 414 210 417 213v3h4v3h2l2 4 5 3v1c-10.75-.75-10.75-.75-13-3-3.71-1.056-7.449-1.922-11.203-2.805C402 220 402 220 398.89 217.918c-3.217-2.134-5.089-2.444-8.891-2.73-11.318-1.491-21.116-6.124-27-16.188l-2.25-3.813c-2.127-5.088-2.933-9.738-3.75-15.187l-5 1-2-4c-5.554-.483-8.778-.089-14 2-3.983.81-7.98 1.382-12 2-.125-6.875-.125-6.875 1-8 1.825.03 1.825.03 3.688.063 4.157.157 4.157.157 7.312-1.063 3.756-1.252 7.068-1.136 11-1Z"/><path fill="#413d37" d="M376 143c2.409 2.256 4.76 4.577 7 7 3.256 1.035 3.256 1.035 6 1v1l-4.313.625c-5.07 1.226-7.214 2.157-11.312 5-4.63 3.18-7.642 4.132-13.375 3.375 1.25-4.996 2.83-5.306 7-8l1-3h-5v2c-7.875.125-7.875.125-9-1-3.33-.37-6.663-.704-10-1l.188 5.313C343 161 343 161 337.938 163.188c-12.576 1.72-12.576 1.72-16.938-1.188 1.076-5.38 2.083-6.485 6-10-5.963.518-11.789 1.276-17.668 2.395-9.735 1.768-19.535 3.23-29.332 4.605 3.697-3.697 9.535-4.232 14.5-5.563 7.426-1.754 7.426-1.754 14.5-4.437l4.438-.438c4.52-.21 4.52-.21 7.562-2.562 5.257-1.093 10.537-1.987 15.828-2.902C364.05 137.32 364.05 137.32 376 143Z"/><path fill="#ebe4c8" d="m282 186 2.438 3.563c2.53 3.849 2.53 3.849 7.562 6.437 5 5.444 5 5.444 5 8l4 2v3l-5.875.813c-4.38.655-8.124 1.508-12.375 2.875-8.402 2.321-15.711-.058-23.875-2.563l-5.133-1.555A118.517 118.517 0 0 1 242 204c2.507-5.014 3.51-5.84 9.063-6.438 6.472.574 12.264 2.765 16.937 7.438 3.325.406 6.66.743 10 1v-2a139.56 139.56 0 0 0-6-2 292.85 292.85 0 0 1-6.75-3.063l-3.422-1.597A252.922 252.922 0 0 1 257 195c0-2 0-2 4.313-4.563C266 188 266 188 269 187v-2c8.327-3.673 8.327-3.673 13 1Z"/><path fill="#88add3" d="m355 400-1 6 2.813-1.5c12.728-4.56 24-.262 34.187 7.5a501.665 501.665 0 0 0 10 3l1 3 5 1 4.375 2.375c6.58 3.414 16.364 7.045 23.625 4.625-1 4-1 4-4 7-7.755 1.818-12.754-.036-20-3l-4.625-1.438c-5.92-2.114-11.101-4.94-16.223-8.593-13.752-9.795-28.006-8.805-44.027-5.969-11.54 2-11.54 2-17.125 2 0-6.034 1.105-6.485 6.008-9.508C340.819 403.594 348.412 400 355 400Z"/><path fill="#b4c8da" d="M86 360c1 4 1 4-.938 8.125-2.711 5.528-2.711 5.528-2.062 14.875l32 3v2l4.5-.188c5.296.181 8.76.905 13.5 3.188v2c-5.772.156-10.628.262-16-2v2c3.327 1.126 6.611 2.092 10 3l3.723 1.012c6.41 1.726 12.829 3.409 19.277 4.988l-1 3 4.063.313c7.06.817 14.03 1.992 20.937 3.687v1l-3.84-.219-5.097-.281-5.028-.281c-4.687-.204-9.345-.257-14.035-.219v-2l-4 1c-3.083.07-6.167.085-9.25.063l-4.953-.028L124 408v-1l17-1-5.563-1.313c-4.738-1.181-8.962-2.724-13.437-4.687-8.228-2.769-16.571-4.942-25-7l-3-1c-2.835.062-5.67.197-8.5.375l-4.594.273c-3.81.193-3.81.193-6.906 1.352-2.454.197-4.914.312-7.375.375l-3.96.148c-4.473-.638-5.858-2.088-8.665-5.523 3.877-3.508 6.961-5.594 12-7l1-1c3.438.188 3.438.188 7 1l2 4h5l3 3c3.54.695 3.54.695 7.563 1 6.517.696 12.25 1.873 18.437 4-4.248-4.248-8.031-4.801-13.875-6L92 387v-2l-4.875.063C82 385 82 385 80 384v-2l-4-2-4-3c2-4 2-4 3-5h6l2-5c.995-2.335 1.994-4.669 3-7Z"/><path fill="#dce1e5" d="M285 383c-1.33 5.322-4.075 7.201-8 11-3.277 3.673-6.484 7.312-9.438 11.25-5.214 5.596-11.102 7.217-18.562 7.75v2c-3.395.108-6.791.186-10.188.25l-5.73.14c-5.012-.385-6.892-.591-10.082-4.39v-3l-4-2c-3-4-3-4-3-6 2.979-.756 5.985-1.404 9-2 5.342-.698 5.342-.698 10-3h6v3h-2l1 7 2-1c.082-2.665.085-5.335 0-8 3.403 1.059 6.014 2.009 9 4-2 4-2 4-6 7 4.885.192 7.315-.126 12-2a215.372 215.372 0 0 0 3.297-6.84c5.843-12.457 10.84-15.342 24.703-15.16Z"/><path fill="#dce1e5" d="M449 339c-1.472 7.358-6.185 10.258-11.813 14.875l-3.195 2.648L431 359c-4.462 3.73-8.434 7.455-12.188 11.875C413.74 376.639 407.77 381.353 401 385c-3-1-3-1-5-5l-2.688-2-2.312-2c3.7-14.799 43.168-37 58-37Z"/><path fill="#b9b3a2" d="M131 325c4.684 1.561 6.869 5.3 10 9l2 2v4h2l3 4c5.165-.199 9.935-.987 15-2l.375 2.875c.342 3.212.342 3.212 2.625 5.125l2-3 .438 2.75c1.33 3.704 1.33 3.704 5.75 4.938 5.749 2.762 7.248 5.402 10.207 10.851 1.574 2.866 1.574 2.866 5.605 4.461v2h2v4l5 1c4.263 5.946 4.263 5.946 3 11l-3-4c-1.398 2.253-1.398 2.253 0 6h2c1.02 2.66 2.017 5.327 3 8l3 4-1 2v3c-6.058-1.514-7.124-6.19-9.563-11.438C189.956 386.497 184.15 378.15 177 371v-2l-4-2v-2l-4-2-3-2.313c-4.247-2.853-8.365-4.589-13.133-6.378-6.803-3.105-11.228-8.076-12.367-15.622-.229-3.216-.229-3.216-4.5-4.687a167.68 167.68 0 0 1-5-9Z"/><path fill="#b4c8da" d="M299 389c1.235 4.94.588 8.974 0 14v1l1.992-1.996c3.976-2.65 6.41-2.384 11.133-2.067l4.258.215C320 401 320 401 323 406c-.222 8.222-.222 8.222-4 12-6.629 1.371-6.629 1.371-8 0l-4.25-.375C302 417 302 417 297 414l-5.125-1.5C287 411 287 411 284 408v-2h-2v-2h-2c0-5 0-5 2-9l5-1 2-4c3.869-2.58 5.588-2.144 10-1Z"/><path fill="#b9b3a2" d="m350 176 2 5 5-1 .664 2.746c3.891 14.948 10.78 24.587 25.336 30.254a87.968 87.968 0 0 0 9.992 1.383c3.705.76 5.878 2.522 9.008 4.617 3.83 1.246 3.83 1.246 7.813 2.125 7.082 1.666 7.082 1.666 8.187 3.875-23.665.247-23.665.247-33-3l-4.313-.438L377 221l-1-3a241.06 241.06 0 0 0-9-2c-3-2-3-2-3-5l-4-2a238.567 238.567 0 0 1-4-8l-3-3v-2h-2v-2h2c-.765-4.483-.765-4.483-2-9l-3-1v-3l-3.688.5c-5.3.499-10.376.451-15.687.242L326 182l-1 3v-5c2.738-1.11 2.738-1.11 6.313-1.75l3.55-.672L338 177c4.173-1.391 7.633-1.37 12-1Z"/><path fill="#dce1e5" d="M47.188 291.688c1.104.005 2.208.01 3.345.017 12.372.183 22.618 1.314 32.467 9.295v2c-6.633 2.653-12.464 3.14-19.563 3.125l-3.816.008C56 306 56 306 53.246 305.5c-3.64-.56-7.114-.627-10.797-.64l-4.303-.06a853.04 853.04 0 0 0-8.976-.054l-4.283-.074-3.931-.028L18 304l-1-5c9.41-6.526 19.015-7.372 30.188-7.313Z"/><path fill="#625f5b" d="M236 143c8.993 0 13.948 4.775 20 11l4 2-3.148 1.54c-11.444 5.647-21.9 11.439-31.852 19.46l-3.063 2.438L220 181c-5.002-7.504-5.688-12.253-5-21 2.878-2.878 5.04-2.137 9-2h4l-2.563-2.313L223 153c1-3 1-3 5.438-4.25 6.954.313 8.775 2.412 13.335 7.344 2.275 2.471 2.275 2.471 6.227.906-3.775-4.441-7.428-8.398-12-12v-2Z"/><path fill="#fcfcfc" d="m240 362 3.563 1.25c5.561 1.79 11.149 3.3 16.8 4.773 2.943.79 5.858 1.681 8.762 2.602 5.1 1.439 10.03 2.161 15.285 2.75C287 374 287 374 288 377l-2.816.332C270.138 379.096 270.138 379.096 259 388h-2a168.166 168.166 0 0 0-2 6l-2 3c-4.828-1.61-6.265-3.685-9-8-.27-4.092-.12-8.069.055-12.164-.068-4.78-1.537-7.823-4.055-11.836v-3Z"/><path fill="#625f5b" d="M256 280c7.045 7.6 12.342 16.792 17 26l1.691 3.027c3.403 6.26 5.04 10.655 4.309 17.973-17.448-10.331-28.479-20.365-29.188-41.625.23-5.375.23-5.375 6.188-5.375Z"/><path fill="#b4c8da" d="M352 413c.224 9.63-1.297 13.496-8.555 19.844-2.744 2.272-2.744 2.272-5.445 6.156-5-1-5-1-9-4l-3.438-1.188C319.23 431.298 313.72 427.671 308 424c4.021-2.68 6.213-2.486 11-2 4.5 2.5 4.5 2.5 8 5v-2h-2c-1.375-6.5-1.375-6.5 2-11l1 1c4.787-.346 9.518-.743 14.25-1.563 3.278-.521 6.437-.503 9.75-.437Z"/><path fill="#88add3" d="M157 300c4.292 4.292 4.423 4.676 4.813 10.25.888 6.903 3.296 9.704 8.187 14.75a268.79 268.79 0 0 1 4.188 6.75c3.127 4.999 6.35 9.005 10.625 13.063 10.684 10.209 18.274 23.138 26.226 35.503 1.604 2.953 1.604 2.953 3.961 2.684.716 2.989 1.381 5.99 2 9 2.408 2.408 8.753 1.739 12 2l-4 1v2c-8.625-.75-8.625-.75-12-3-1.125-2.796-2.25-5.593-3.371-8.39-7.18-15.91-18.75-31.904-32.629-42.61.178 4.434.178 4.434 1 9l4 2 3 5-2 3c-11.422-15.167-11.422-15.167-12-26-3.546-7.904-9.384-13.502-15.531-19.43-5.11-5.32-6.469-9.279-6.469-16.57 2.096-2.096 5.437-.565 8 0Z"/><path fill="#b9b3a2" d="M262 256h12v2c-4.596 2.155-9.23 4.154-13.916 6.104-7.287 3.158-9.551 5.83-13.084 12.896h-2c-2.575 15.532-2.575 15.532 3 29l3.063 5.125c2.28 4.77 2.28 4.77 4.937 5.875v3h2l1 4 3 1a106.4 106.4 0 0 1 4.625 5.875l2.414 3.242C271 337 271 337 272 340l4 2a250 250 0 0 1 4 6l3 2c.5 4.5.5 4.5 0 9-9.66 3.864-21.184 2.203-29.703-3.953-1.82-1.623-3.573-3.323-5.297-5.047 4.97 1.49 9.367 3.684 14 6 4.59 1.836 6.789 2 12 2 1.639-3.873 2-6.795 2-11l-4-2-1-3h-2a1197.096 1197.096 0 0 1-7-8l-2.813-2.25C257 330 257 330 255 326l-2-1v-3h-2l-2-6h-2c-2-3-2-3-3-8h-2c-1.101-5.505-1.109-10.732-1.063-16.313l.014-3.11c.012-2.526.03-5.052.049-7.577h2l.375-4.25c.981-7.458 3.411-9.853 9.625-13.75l5-1v-2l4-3v-1Z"/><path fill="#b4c8da" d="M317 166c-1 5-1 5-3 7-3.954.564-7.908.894-11.887 1.242-4.454.82-7.28 2.41-11.113 4.758-3.938.75-3.938.75-7 1 4.636 7.064 9.387 13.933 14.875 20.375C301 203 301 203 301 205h3l4 4-1 3 1 4-2.012-2.48c-3.842-3.24-5.854-3.048-10.8-2.833l-4.083.137L288 211v-1l13-1c-1.736-4-1.736-4-4.5-6.5-2.5-2.5-2.5-2.5-4.5-6.5l-5-2c-1.887-2.672-1.887-2.672-3.688-5.75-3.366-5.138-3.366-5.138-9.812-5.063L269 185v2c-8.28 6-8.28 6-12 6v2c1.983.716 3.988 1.37 6 2 2.64 1.13 5.265 2.3 7.875 3.5l4.055 1.844L278 204v2c-6.437 1.497-9.687-.015-15-4-5.784-3.124-10.482-3.268-17-3 3.974-7.948 10.711-9.928 19-12v-2c2.684-1.52 5.373-3.034 8.105-4.465 2.682-1.422 5.293-2.974 7.895-4.535h4v-2a198.65 198.65 0 0 1 10.25-3c18.86-5.111 18.86-5.111 21.75-5Z"/><path fill="#413d37" d="M436 192c1.847 4.207 2.455 8.461 3 13l5-5 1.547 2.238c4.232 5.906 8.433 10.774 14.015 15.45 5.293 4.684 5.293 4.684 6.563 10.187-1.389 5.093-2.492 6.606-7.125 9.125-4.745.385-8.388.153-13-1v-2h8v-2l-3-1v-2h-5l-4-4h8c0-4.082-1.413-4.485-4.5-7-4.5-3.667-4.5-3.667-4.5-7h-2v2c-3 0-3 0-5.188-2.688-2.438-5.801-2.362-11.09-1.812-17.312 1-1 1-1 4-1Z"/><path fill="#8d877b" d="M128 324c3 0 3 0 5.938 4.75l1.464 2.672c1.737 3.022 1.737 3.022 5.598 6.578a831.477 831.477 0 0 1 3 8c2.818 5.05 6.909 6.53 12.113 8.746C166.354 359.195 172.845 364.59 180 373l2.938 3.25c6.55 8.022 11.61 16.253 15.542 25.84 1.726 3.304 3.745 5.444 6.52 7.91h1l-1-4c5 2 5 2 9 6h-3l4 3c-8.538-.38-17.848-5.13-23-12a620.302 620.302 0 0 1-4-10c-8.392-17.131-21.244-28.134-38.438-36-9.408-4.535-14.46-13.568-17.625-23.25-.915-3.151-.915-3.151-3.937-6.75v-3Z"/><path fill="#ebe4c8" d="M326 198h1c1.203 3.308 2.146 6.582 3 10-1 1-1 1-4.5 1.25l-3.5.75c-1.304 6.519.055 9.806 4.438 14.75 3.527 3.097 6.355 5.177 10.812 6.75L341 233v3l2 2c-3.545 3.545-9.075 2.577-13.875 2.75l-3.34.168c-8.285.332-8.285.332-12.785-1.918.25-4.125.25-4.125 1-8h2c.394-5.716.394-5.716-1.5-9.5-1.5-3.5-1.5-3.5-1.5-9.5l-1-4h6l3-1v-2h3c.743-2.31 1.411-4.646 2-7Z"/><path fill="#413d37" d="m307 214-1-4c5.543 4.158 4.687 7.338 5 14l-4-2-2.625 5.375c-2.452 4.548-3.93 6.977-9.375 7.625l-1-4-5 3-2-4 1-1v-5l-2-1v-2c-1.985-.71-3.99-1.367-6-2a99.529 99.529 0 0 1-6-3v-1l5-1 1-2c2.713-.476 5.448-.83 8.188-1.125l4.542-.508c9.795-.842 9.795-.842 14.27 3.633Z"/><path fill="#413d37" d="M328 254c.903 4.316.898 6.508 0 11h-2l2 4c-3.923 7.73-3.923 7.73-9 9l-1 3c-3.645.778-7.314 1.45-11 2-1.825-7.299-2.837-16.758 2-23 6.194-5.162 11.063-6.156 19-6Z"/><path fill="#88add3" d="M312 236c-3.072 4.424-6.287 6.475-11 9l-4 3c6.24-.403 12.092-1.408 18.188-2.813a505.566 505.566 0 0 1 21.937-4.5l5.695-1.05c4.767-.586 8.501-.647 13.18.363l1 2c-6.285 1.42-12.461 2.293-18.875 2.938-11.787.63-11.787.63-22.125 5.062h-6v2c-2.541.581-5.112 1.035-7.688 1.438-5.56.908-11.027 1.907-16.5 3.25C280 258 280 258 274 258v-2l-3.395.07-4.418.055-4.394.07C258 256 258 256 255 254l4.059.14 5.378.11 5.31.14c9.175-.682 15.177-4.822 22.253-10.39l3.25-2.125c3.137-2.014 3.137-2.014 6.75-5.875 4.001-1.084 5.91-1.022 10 0Z"/><path fill="#fcfcfc" d="M419 167c0 5.63-.534 6.094-4 10.125-5.163 6.78-5.41 12.572-2.75 20.688 1.753 3.193 3.714 6.168 5.75 9.187v2l4 2-1 4c-4 0-4 0-7-4-3.023-1.171-6.055-1.952-9.188-2.777C402 207 402 207 399 202v-5l-2-1 5-1v-2h-2l.063-3.188c.048-4.039.048-4.039-1.063-8.812l4-1 2-4 1-2h5v-3c5.257-4 5.257-4 8-4Z"/><path fill="#8d877b" d="M446 136c-1.3 6.5-4 7.797-9 12-3.573 3.91-6.264 7.44-9 12 0-3 0-3 1-5-3.028.536-3.028.536-6 2l-.25 2.938C422 163 422 163 417 164.75l-5 1.25-1 2h-6l1-6h2l1-2h-5c2.695-2.695 6.084-5 10-5v-2l-4 1v2l-4.875.375c-4.984.074-4.984.074-7.125 2.625h-5l1-2h2v-2l7-1v-2c2-2 2-2 6-3l2-3c3.258-.512 3.258-.512 7.125-.688l3.883-.199L425 145l-1 6c5.193-3.284 9.283-6.13 13-11 5.297-4 5.297-4 9-4Z"/><path fill="#625f5b" d="m313 258-2.438 2.313c-4.3 4.51-3.67 8.342-3.625 14.375l.028 4.699L307 283c7.727-1.623 7.727-1.623 14-6l3-1c1 4 1 4-2.438 7.625C303.336 298.834 303.336 298.834 296 297c-1.991-9.957-1.746-19.518 2-29 4.063-3.438 4.063-3.438 8-6l2-4c3-1 3-1 5 0Z"/><path fill="#8d877b" d="M243 127c5.352 1.07 9.967 2.92 15 5l1-3v4l-2 1 2.52 2.23 3.293 2.958 3.269 2.917C269 145 269 145 272 150c-6.494-1.299-8.44-4.302-13-9-2.294-1.72-4.614-3.41-7-5 1.797 4.031 1.797 4.031 4.625 6.938C259 146 259 146 259 151l2 4c-5.742 0-6.172-.563-10.063-4.375-4.71-4.573-8.373-6.73-14.937-7.625l2.063 2.063L241 148l3.813 3.688C248 155 248 155 248 157l-4 2c-8-6-8-6-8-10l-4-3v-6c4.75-1.313 4.75-1.313 10-2l4-1-1.5-2.75C243 131 243 131 243 127Z"/><path fill="#413d37" d="M372 341c1.49 4.468-.962 6.317-3.309 10.063-5.77 10.022-9.205 21.902-10.128 33.375-.95 7.696-4.71 10.372-11.563 13.562h-6l-1-3-6 3v-3l-4-1 4-1 1-4 3 1 1-2v3c3.524-1.94 3.524-1.94 5-7l3-2 1-3h3l.25-2.813C352 373 352 373 356 370c1.17-2.93 1.17-2.93 2-6l2-4 1-3c1-3 1-3 3-7h2l2-5 4-4Z"/><path fill="#ebe4c8" d="m389 170-1 3h-2c-2.466 4.933-1.69 7.632-1 13l-1 2 2 1-1 2a97.72 97.72 0 0 0 1.438 6.125l.87 3.32L388 203c-3 1-3 1-8-2l-4-1v-2l-4-1c-7.485-8.66-7.485-8.66-7-14 2.625-2.063 2.625-2.063 6-4l2.563-2.688C376 174 376 174 381 173l1-3c2-1 2-1 7 0Z"/><path fill="#625f5b" d="M298 109c4.56 1.52 5.361 4.738 7.625 8.875l2.414 4.367C310.93 127.78 311 129.302 311 136h17v1l-3.324.113-4.363.2-4.325.175c-4.377.29-4.377.29-8.988 3.512-5.5 1.688-5.5 1.688-11 2-6.747-6.893-9.662-19.548-11-29 8.598 2.15 13.266 14.828 17.3 22.191 1.404 2.883 1.404 2.883 3.7 3.809l-1.242-2.633-1.633-3.492-1.617-3.445c-3.34-7.599-3.692-13.163-3.508-21.43Z"/><path fill="#413d37" d="M198 233c1.166 4.665.42 6.482-1 11-6.104 24.752-4.485 47.644 6.863 70.426C205 317 205 317 205 320h2c3 4 3 4 3 7h2c1.339 1.662 2.671 3.33 4 5l2.375 1.875C221 336 221 336 223.75 339.313c5.27 5.98 11.122 10.214 18.25 13.687v2h3l-1 2c-1.939-.956-3.876-1.915-5.813-2.875l-3.269-1.617C232 351 232 351 229 349v-2l-4-1c-7-7.233-7-7.233-7-11l-3.195-.82c-4.66-1.445-5.9-3.12-8.68-7.055l-2.305-3.18C202 321 202 321 201 317h-2a218.6 218.6 0 0 1-5-12l-1.18-2.906c-5.32-14.137-3.895-28.42-1.82-43.094l.512-3.781c1.157-8.071 2.63-15.029 6.488-22.219Z"/><path fill="#b9b3a2" d="M414 153v2a178.941 178.941 0 0 1-8 4l3 1-1 3-2-1v2l2 1h-3v3h6l1-3 5.063-.813L422 163v-6c3-2 3-2 7-2-1.607 6.43-5.352 11.352-10 16v-4l-2.875 2C413 171 413 171 411 171v3h-5l-1 3-5 1-1-4 5-1v-3l-2-1v-2l-4-1 1-1-5-1v2c-2.105.525-4.237.941-6.375 1.313-7.18 1.427-14.293 3.355-19.625 8.687h-3l-1 9h-1c-.784-8.012-.784-8.012 0-12 4.125-2.5 4.125-2.5 9-4l3-2.188c3.95-2.386 7.446-2.536 12-2.812v-2c3.858-2.205 7.788-3.629 12-5l1-1c3.333-.041 6.667-.042 10 0v-2c2-1 2-1 4-1Z"/><path fill="#dce1e5" d="m191.254 417.672 4.088.015 4.22.063 4.233.016c5.856.044 11.44.134 17.205 1.234v2c-2.514.764-5.065 1.41-7.625 2-9.414 1.51-9.414 1.51-16.375 7-6.51 2.624-12.784 5.144-19 1-2.16-4.32-2.61-5.55-1-10 4.876-2.605 8.765-3.37 14.254-3.328Z"/><path fill="#dce1e5" d="M125 312h2v2l4 2c29.404 18.211 29.404 18.211 32 26-5.43 1.974-9.144 3-15 3-3-3-3-3-3-5h-2l-2-5a276.457 276.457 0 0 0-7-7c-9-10.038-9-10.038-9-16Z"/><path fill="#625f5b" d="M288.828 163.738c5.446.45 10.743-.213 16.172-.738v2l5-2c2.999-.078 6.001-.09 9 0l-1 3v-2c-10.917 2.473-21.551 4.97-32 9h-3v2l-5.313 1.438c-5.674 1.054-5.674 1.054-8.687 4.562l-3 1-1 2a276.787 276.787 0 0 1-8 3c-4.316 1.895-4.316 1.895-8 6l-5 2-1 3a95.29 95.29 0 0 1-5 4v-2h-2v-2c3-1.125 3-1.125 6-2l-2-4c7.468-4.564 14.884-8.659 22.938-12.125 4.067-1.364 4.067-1.364 5.062-3.875l5-3 3-3h2l-1-4c4.695-3.521 6.256-2.962 11.828-2.262Z"/><path fill="#625f5b" d="m232 196 4 5-3 1v2l-2.5 1.125c-6.495 3.48-10.78 8.073-13.5 14.875l-2.25 2.125c-6.125 6.404-9.176 14.51-11.75 22.875l-2 4a267.362 267.362 0 0 0-1.563 9.625c-1.34 9.18-1.34 9.18-2.437 11.375a130.959 130.959 0 0 0-.098 6.102l.01 3.671.025 3.852.014 3.875c.012 3.167.03 6.333.049 9.5-4.808-4.808-3.145-12.832-3.125-19.188l-.012-3.619c.014-12.62.54-31.596 10.137-41.193l2-5.625 2-5.375h2l1-4a136.97 136.97 0 0 1 5.75-6.375c3.117-3.278 6.144-6.491 8.953-10.04C228 199 228 199 231 199l1-3Zm-12 18 1 2-2-1 1-1Z"/><path fill="#88add3" d="M333 202h3l-.25 4.938L336 212l4 1 1 5 3 1v7l-15-1v2c-5.531-2.766-7.566-6.145-9-12 1-5 1-5 2-6 2.328-.368 4.662-.702 7-1l-1-5 5 1v-2Z"/><path fill="#8d877b" d="M376 202h3v2l5 2 2.813 1.5c5.922 2.787 12.304 3.732 18.687 5 12.32 2.461 12.32 2.461 15.5 3.5v3h2l2 4 5 3v1c-10.75-.75-10.75-.75-13-3-3.71-1.056-7.449-1.922-11.203-2.805C402 220 402 220 398.926 217.934c-3.321-2.195-5.561-2.593-9.488-2.996-5.09-.534-6.791-1.15-11.438-3.938v-3h-2v-2h2v-2h-2v-2Z"/><path fill="#8d877b" d="M347 171v2l3-2h4l2 5 2-1 4 11 2-1 .516 2.59.734 3.347.703 3.34c.822 3.246.822 3.246 5.047 3.723 1.75 4.063 1.75 4.063 3 8-8.976-1.899-11.503-6.84-15-15-.86-3.662-1.441-7.274-2-11l-5 1-2-4c-5.554-.483-8.778-.089-14 2-3.983.81-7.98 1.382-12 2-.125-6.875-.125-6.875 1-8 1.825.03 1.825.03 3.688.063 4.157.157 4.157.157 7.312-1.063 3.756-1.252 7.068-1.136 11-1Z"/><path fill="#b4c8da" d="M422 212c6.908 3.454 12.705 8.411 18 14 1.664 1.67 3.33 3.336 5 5l-4.129-.035-5.433-.028-5.38-.035c-4.171.08-7.948.501-12.058 1.098-12.325.428-24.583.053-36.875-.875l-3.314-.238c-7.688-.64-7.688-.64-8.811-2.887a160.565 160.565 0 0 0-7-3c3.068-1.534 5.334-.393 8.625.375 5.12 1.154 10.145 2.102 15.375 2.625v2l38-1-1-3h6l-5-3-1-4h-2v-3l-4-1 4-1 1-2Z"/><path fill="#b9b3a2" d="M84.625 270.375c4.262 3.531 7.227 7.046 10.535 11.422 2.306 2.761 4.483 3.962 7.84 5.203l6 3-4 2-3.5-2.313c-4.473-2.67-5.718-2.97-10.625-3.062-7.132-.759-7.535-2.342-11.875-7.625-5.148-.899-5.148-.899-10-1-2.993-2.993-1.859-5.064-1-9 5.66-2.83 11.31-1.354 16.625 1.375Z"/><path fill="#413d37" d="M233 358c7.576 2.306 7.576 2.306 9 8l1.563 3.188c2.315 6.14 2.589 12.92-.563 18.812-5.914 4.271-5.914 4.271-11 3l3-4v-6h-3c-.95-2.738-.95-2.738-1.688-6.313-.25-1.171-.502-2.343-.761-3.55C229 368 229 368 229 365h7c-.476-4.054-.476-4.054-3-5v-2Z"/><path fill="#88add3" d="m48.813 287.75 3.638-.023 3.506.007 3.156.007C62 288 62 288 67 290v1l-4.906.113C39.026 291.026 39.026 291.026 18 299v4c2.096.09 2.096.09 4.234.184l5.516.253 5.484.247C38 304 38 304 42 305v2c-27.705.295-27.705.295-32-4 0-5.954.197-6.022 5-9 11.238-5.094 21.657-6.33 33.813-6.25Z"/><path fill="#625f5b" d="m394 142 3 1c0 6 0 6-3 9l-3 1c5.28.305 6.577.317 11-3h2l2-4c3.005-.575 6.017-1.142 9.055-1.508 3.235-.392 3.235-.392 6.945-2.492 3.25.375 3.25.375 6 1-.313 3.438-.313 3.438-1 7l-3 1v-5c-2.126.087-4.25.195-6.375.313l-3.586.175c-3.347.184-3.347.184-5.039 3.512-3 2-3 2-6 2v2l-7 1v2c-4.144 2.762-7.75 2.661-12.688 3.125l-5.261.508L374 161l3-5-2-1c4.922-2.41 8.519-3.336 14-3l-2-5c0-6.222.897-6.22 7-5Z"/><path fill="#625f5b" d="M312 177h1l1 6h4l1 2h4l2-4 1.375 3.375c2.096 4.776 2.096 4.776 6.813 6.313 5.05 1.738 7.497 4.168 10.812 8.312-.063 3.438-.063 3.438-1 6l-4-2v-3c-3.44-.753-3.44-.753-7-1l-1 3-4-6-2 2-1-2-5-1-2 4c-3-1-3-1-4.188-5.375-.825-5.712-.96-10.872-.812-16.625Z"/><path fill="#88add3" d="m318 164-1 4v-2c-6.565 1.202-12.707 2.784-19 5-8.556 3-8.556 3-13 3v2l-3.375 1.25c-3.751 1.42-6.63 2.856-10 4.938C267 185 267 185 265 185v2c-4.253 2.306-8.506 4.202-13 6-4.403 2.972-7.05 6.616-10 11l4.313 1.125c7.143 1.92 14.129 4.305 21.136 6.668 4.415 1.17 8.011 1.44 12.551 1.207-1.827 3.655-6.29 2.686-10 3v-2a356.395 356.395 0 0 0-6.613-1.227c-5.803-1.325-11.337-3.492-16.922-5.53-4.692-1.306-8.62-1.464-13.465-1.243 2-3 2-3 5-4l2.75-3.313c3.233-3.668 5.998-5.398 10.25-7.687l2-3c7.086-4 7.086-4 12-4l1-3 5-3 3-2c2.992-.399 5.993-.739 9-1v-2c10.662-4.83 23.278-9 35-9Z"/><path fill="#88add3" d="M107 291c6.498 1.3 8.516 4.235 13 9l2.563 2.563a184.744 184.744 0 0 1 5.312 5.562c6.83 6.417 14.554 11.68 22.227 17.043 17.438 12.305 17.438 12.305 17.46 20.894L167 351c-4.685-3.983-5-4.387-5-11-6.706-7.644-16.007-13.231-24.492-18.71C127.32 314.64 127.32 314.64 126 312l-4-2v-3h-5l-1-2h3c-2.955-3.589-5.797-6.831-9.375-9.813C107 293 107 293 107 291Z"/><path fill="#b4c8da" d="M390 374c4.552 3.625 6.797 5.492 9 11h-7l2 4 4.25-.063c5.542.073 7.166.927 10.75 5.063v5h-24c1.67-5.01 6.33-5.286 11-7l-2.813.5c-5.78.907-5.78.907-7.187-.5-2.058-11.563-2.058-11.563 1.438-16.313L390 374Z"/><path fill="#413d37" d="M256 280c1.38 3.65 2.373 6.977 3.25 10.75l.773 3.078A697.87 697.87 0 0 1 262 302c.476 4.294.476 4.294 4 5 2 5 2 5 1 10-7.407-1.852-11.961-8.247-15-15-5.176-22-5.176-22 4-22Z"/><path fill="#b4c8da" d="M164 393c4 .813 4 .813 8 2v3c2.925.731 5.852 1.455 8.793 2.121 4.385 1.202 7.674 3.039 11.207 5.879l-1 4h6l-1 3c-2.941.293-2.941.293-6.563.188l-3.628-.083L183 413v-2h-4v-2l-5-1-2-5-1 2c-3.379-.023-3.379-.023-7.563-.375l-4.19-.336L156 404v-1l6-1-2-4 6-2-2-1v-2Z"/><path fill="#413d37" d="m432 134 4 2c1.991.383 3.991.726 6 1-3 3-3 3-5 3l-2 4c-4 4-4 4-9 5l1-5c-4.97-1.526-4.97-1.526-9 1-3.035.52-6.068.883-9.125 1.242-3.436.648-3.436.648-6.875 4.758-4.822 3.617-7.135 3.259-13 3 2-2 2-2 7-5l2-4h5l5-3a502.64 502.64 0 0 1 6-2l4.375-2.063c4.396-1.841 7.918-2.517 12.625-2.937l1-1Z"/><path fill="#413d37" d="M189 223c1.504 4.512-.488 7.54-2 12-3.356 15.737-6.33 31.94-4 48a217.64 217.64 0 0 1-6.875-8.938c-3.006-4.088-3.006-4.088-6.5-7.437C167 264 167 264 167 262l4 1 3-4 4 1v-4h3v-9l-2 1c0-4 0-4 3-7a224.327 224.327 0 0 0 2-8l2-4h-2c1-3 1-3 5-6Z"/><path fill="#88add3" d="M311 181h1a266.05 266.05 0 0 1 1.563 8.5l.816 4.781L315 198c3.118-.646 3.118-.646 4-3h5c2.305 4.61 2.188 5.525 0 10l-4 1 1-4h2v-3c-3.354.655-3.354.655-3.813 4-1.187 3-1.187 3-4.062 4.063C312 207 312 207 308 204v-2l-4-2c-2.813-2.375-2.813-2.375-5-5l1-4 5.563-.75L311 189c.917-4.086.917-4.086 0-8Z"/><path fill="#b9b3a2" d="M386 408c7.476.307 11.13 1.493 17 6 13.4 5.975 13.4 5.975 26.875 3l2.125-2h2l1-2c1.27 5.654.843 8.923-2 14-9.096 3.032-23.05-4.537-31-9l-3-3-5-1.438C389 412 389 412 386 408Z"/><path fill="#dce1e5" d="M271 417c2.984-.629 2.984-.629 6.75-.563l3.734-.003c4.019.647 5.694 1.681 8.516 4.566 1.413 4.523 1.183 5.633-1 10-5.715 2.857-10.906 1.057-16-2-2.7-4.861-3.119-6.405-2-12Z"/><path fill="#625f5b" d="M236 143c8.993 0 13.948 4.775 20 11l4 2a5265.565 5265.565 0 0 1-7.813 3.938l-4.394 2.214C244 164 244 164 241 165l-3-5-4.688-3.625C229 153 229 153 229 150c6.681 0 6.681 0 10.625 4.063 3.934 4.635 3.934 4.635 8.375 2.937-3.775-4.441-7.428-8.398-12-12v-2Z"/><path fill="#413d37" d="M284 213v2l4 2v4l3.875-.125C296 221 296 221 298 223l3-3h4c0 6.675-1.035 8.802-5 14l-5 1-1-4-5 3-2-4 1-1v-5l-2-1v-2c-1.985-.71-3.99-1.367-6-2a99.529 99.529 0 0 1-6-3v-1c3.606-1.393 6.089-2 10-2Z"/><path fill="#b4c8da" d="m395 175 2 3-1 2 6-1-2 4c-.236 2.236-.236 2.236 2 4h-2v6h2v2l-5 1v-3l-2 1 1 4h-2c-1.158 2.975-1.158 2.975-2 6l-4-1c-1.123-5.988-1.096-11.922-1-18h2l1-6h5v-4Z"/><path fill="#8d877b" d="M284 110h2l2 4h-3c2.663 9.134 5.494 17.613 10 26l1 3c-7.056-1.764-10.403-8.004-14-14-3.003-4.084-3.003-4.084-7-7v2h2c2.688 3.375 2.688 3.375 5 7l-1 2-7-5-1 2c-2.624-5.249-3.308-9.146-3-15 5 3 5 3 7.563 5.125 2.484 2.17 2.484 2.17 6.437 2.875v-13Z"/><path fill="#b9b3a2" d="m122 322 1 3 5 1c5 5 5 5 5 10l-2.887.262-3.8.425-3.762.387c-4.182 1.09-5.636 2.848-8.551 5.926-3-1-3-1-3.75-4.438 1.075-6.539 4.855-10.25 9.75-14.562h2v-2Z"/><path fill="#8d877b" d="M128 324c3 0 3 0 5.938 4.75l1.464 2.672c1.737 3.022 1.737 3.022 5.598 6.578a831.477 831.477 0 0 1 3 8c3.272 5.862 9.115 7.472 15 10 5.25 2.5 5.25 2.5 9 5l-1 5-7.781-4.3a111.815 111.815 0 0 0-6.375-3.118c-11.08-4.994-17.132-13.287-20.906-24.832-.916-3.151-.916-3.151-3.938-6.75v-3Z"/><path fill="#b4c8da" d="M262 256h12v2c-4.596 2.155-9.23 4.154-13.916 6.104-7.287 3.158-9.551 5.83-13.084 12.896h-2c-2.039 13.825-2.039 13.825 1 27 .396 3.326.736 6.66 1 10-2-1-2-1-3-6h-2c-1.101-5.505-1.109-10.732-1.063-16.313l.014-3.11c.012-2.526.03-5.052.049-7.577h2l.375-4.25c.981-7.458 3.411-9.853 9.625-13.75l5-1v-2l4-3v-1Z"/><path fill="#625f5b" d="M259 125c4.755 2.378 7.987 4.464 10.938 8.938 2.3 3.414 4.88 5.476 8.062 8.062 1.377 1.63 2.727 3.287 4 5-6.5 3.125-6.5 3.125-11 2a477.132 477.132 0 0 1-7-8 315.474 315.474 0 0 0-8-7l3-1c.25-4.042.25-4.042 0-8Z"/><path fill="#413d37" d="M355 400c-1.407 10.085-1.407 10.085-5.938 12.688C342.426 414.832 335.974 416 329 416c0-6.034 1.105-6.485 6.008-9.508C340.819 403.594 348.412 400 355 400Z"/><path fill="#b4c8da" d="m372 394 1 3 5-1c1 3 1 3 0 5l5 2 5 3c2.327.687 4.66 1.358 7 2v1c-5.576.341-8.951-.737-14-3-7.99-2.232-16.364-3.818-24 0h-3c1.077-7 3.632-8.372 10-11 2.07-2.07 5.314-1.192 8-1Z"/><path fill="#ebe4c8" d="M92 302c9.2-.468 21.127.811 29 6 .938 4.188.938 4.188 1 8-11.293 1.004-21.486-5.135-30-12v-2Z"/><path fill="#625f5b" d="M373 334c-4 2-4 2-7.625 2.438-3.651.186-3.651.186-5.375 3.562-4.125.688-4.125.688-8 1v2l-6-1-1 4-2.52-1.004c-5.082-1.454-9.875-.986-15.117-.773C324 344 324 344 321 341c6.349-1.434 12.582-2.297 19.063-2.938 4.93-.507 8.929-1.06 13.625-2.687 6.393-2.039 12.656-1.612 19.312-1.375Z"/><path fill="#b9b3a2" d="M211 317c2 0 2 0 5 5l2.188 2.688C220 327 220 327 220 329l5 1c5.6 4.2 5.6 4.2 7 7l5 3 2.063 2.688c3.627 4.09 7.701 6.657 12.292 9.578C254 354 254 354 256 356c6.831 2.564 13.71 4.428 21 5v1c-11.258.763-20.82-2.62-30-9l-4.188-2.5c-3.453-2.265-5.916-4.604-8.812-7.5l-2.8-1.316c-8.36-4.4-19.504-14.936-20.2-24.684Z"/><path fill="#88add3" d="M243 127c5.352 1.07 9.967 2.92 15 5l1-3v4l-2 1 2.52 2.23 3.293 2.958 3.269 2.917C269 145 269 145 272 150c-6.494-1.299-8.44-4.302-13-9-2.328-1.674-4.66-3.343-7-5v-2h-2l-1 3-3 2 2.25 2.188c2.443 2.498 4.618 5.048 6.75 7.812l-16-8c4-4 4-4 7-4l-1.5-2.75C243 131 243 131 243 127Z"/><path fill="#dce1e5" d="M314 172c-1.708 8.539-10.35 10.176-18 13-5.875.813-5.875.813-10 0l-3-5c1-1 1-1 4.125-1.313 3.927-.455 3.927-.455 7.063-2.625C300.368 172.72 306.98 172 314 172Z"/><path fill="#dce1e5" d="m312.188 400.125 4.355.383C320 401 320 401 321 402c.261 4.62.113 6.775-2 11a282.065 282.065 0 0 1-9.5-2.063c-4.55-1.107-4.55-1.107-9.5-.937 0-9.12 3.598-10.727 12.188-9.875Z"/><path fill="#dce1e5" d="M241 395v3h-2v5l-5-2c-.092 1.462-.092 1.462 2 4l-1 2-4-.188-4 .188-1 5-3-1v-3l-4-2c-3-4-3-4-3-6 2.979-.756 5.985-1.404 9-2 14.118-3 14.118-3 16-3Z"/><path fill="#8d877b" d="M425 146v6h-2l-1 3c-5 2-5 2-8 2v-4l-4 1v2l-4.875.375c-4.984.074-4.984.074-7.125 2.625h-5l1-2h2v-2l7-1v-2c2-2 2-2 6-3l2-3c9.902-1.366 9.902-1.366 14 0Z"/><path fill="#b9b3a2" d="M429 155c-1.607 6.43-5.352 11.352-10 16v-4l-2.875 2C413 171 413 171 411 171v3h-5l-1 3-5 1-1-4 5-1v-3l-2-1v-2l-4-1c4-3 4-3 6-3v-3h5l-1 3-2-1v2l2 1h-3v3h6l1-3 5.063-.813L422 163v-6c3-2 3-2 7-2Z"/><path fill="#b9b3a2" d="M372 369c1.405 5.62-.796 8.748-3 14l-1 5c-3.968 5.159-9.998 8.62-16 11l-4-1c4-4 4-4 6.688-6.125 3.284-4.083 3.107-7.752 3.312-12.875h1l1 6c2.748-3.297 5.237-6.73 7.688-10.25C371 370 371 370 372 369Z"/><path fill="#625f5b" d="M301 256v2c-2.58.72-5.192 1.322-7.813 1.875-7.038 1.572-13.46 3.562-20.187 6.125a610.95 610.95 0 0 1-10.25 3.07c-2.917.854-2.917.854-5.75 2.93h-3c2.791-5.582 6.413-6.436 12-9l3.246-1.516c4.333-1.713 8.57-2.713 13.129-3.671l4.836-1.043c4.69-.754 9.049-.908 13.789-.77Z"/><path fill="#88add3" d="M279 180c6.456 1.291 7.248 3.418 11 8.688 4.283 5.973 4.283 5.973 8.875 11.707C301 203 301 203 301 205h3l4 4-1 3 1 4-2.012-2.48c-3.842-3.24-5.854-3.048-10.8-2.833l-4.083.137L288 211v-1l13-1c-1.736-4-1.736-4-4.5-6.5-2.5-2.5-2.5-2.5-4.5-6.5l-5-2c-2.238-2.496-2.238-2.496-4.313-5.438l-2.113-2.933C279 183 279 183 279 180Z"/><path fill="#fcfcfc" d="M356 180c2 3 2 3 3.25 8.125 3.741 14.34 14.126 21.905 27.648 26.078 2.48.674 4.967 1.322 7.461 1.938L397 217v2c-17.95-1.843-31.732-7.046-39.875-23.875-1.433-5.254-1.329-9.689-1.125-15.125Z"/><path fill="#dce1e5" d="M215 421c-4 3-4 3-9.563 3.938-5.7.483-5.7.483-8.437 5.062-5.495 2.263-10.062 3.379-16 3 2-4 2-4 7-7l-6 1v-2c10.494-4.231 21.821-4 33-4Z"/><path fill="#413d37" d="M285 114c6.912 1.728 7.725 6.875 10 13l2.625 5.188C300 137 300 137 301 142l-5 1c-6.478-7.773-9.596-19.078-11-29Z"/><path fill="#b4c8da" d="M74 382c3 4 3 4 3 7-4.535 3.401-5.791 3.34-11.25 3.188l-3.828-.083L59 392c-.215-3.383-.215-3.383 0-7 3.438-1.875 3.438-1.875 7-3 2.104-2.104 5.43-.576 8 0Z"/><path fill="#b4c8da" d="M284 416v1l-13 1c1.018 8.217 1.018 8.217 7 13 5.584.667 5.584.667 11 0 1.794-2.879 1.794-2.879 2-6h1c0 5 0 5-4 9-10.002 1.563-19.545-3.469-26-11l-2-1-1-2-3-1c5.136-5.136 21.16-3.185 28-3Z"/><path fill="#1c1a18" d="M330 151h13c-1 6-1 6-4.25 7.688L335 160l-5 3h-5c-1.563-3.313-1.563-3.313-2-7 4-3 4-3 7-3v-2Z"/><path fill="#dce1e5" d="M327 416c9.75 1.5 9.75 1.5 12 6l4-1c2.42 2.42.382 8.944 0 12-2 1-2 1-7-1v-2h-2l-.125-3.375c-1.163-4.82-2.414-4.296-6.875-5.625v-5Z"/><path fill="#dce1e5" d="m410 194 2 4 3.125 4.625C418 207 418 207 418 209l4 2-1 4c-4 0-4 0-7-4-2.904-1.23-2.904-1.23-6.125-2.063-5.766-1.61-5.766-1.61-6.875-4.937l4-1c2.777-4.48 2.777-4.48 5-9Z"/><path fill="#8d877b" d="M202 247h2l-.898 2.969c-3.3 12.074-9.515 37.572-2.235 48.949L203 301c8.483 13.034 8.483 13.034 7 16-6-7.75-6-7.75-6-10h-2c-3-5-3-5-3-8h-2c-1.22-5.741-1.168-11.396-1.188-17.25l-.042-5.953c.219-5.51 1.001-10.434 2.23-15.797l1-5.125 1-3.875h2v-4Z"/><path fill="#625f5b" d="M217 329c3.34 2.817 6.606 5.587 9.625 8.75 2.52 2.665 2.52 2.665 7.375 4.25 4.714 3.429 4.714 3.429 6 6a332.323 332.323 0 0 0 9 5l4.438 2.625c4.76 2.478 9.424 3.876 14.562 5.375l1 2c-8.385-.441-16.287-2.738-24-6v-2h-3l-2-4-5-3a280.711 280.711 0 0 1-5-5l-4-3.5c-9-7.875-9-7.875-9-10.5Z"/><path fill="#413d37" d="M198 233c1.17 4.679.4 6.458-1 11a311.297 311.297 0 0 0-1.563 8.188l-.753 4.167c-1.496 10.163-1.822 20.145-1.746 30.395l.013 3.594c.012 2.885.03 5.77.049 8.656-7.296-10.944-3.727-27.79-2-40l.512-3.781c1.157-8.071 2.63-15.029 6.488-22.219Z"/><path fill="#b9b3a2" d="m350 176 2 5h3c.177 4.602.108 6.784-2 11l-.813-3.438c-.76-3.864-.76-3.864-4.187-4.562v-3l-3.688.5c-5.3.499-10.376.451-15.687.242L326 182l-1 3v-5c2.738-1.11 2.738-1.11 6.313-1.75l3.55-.672L338 177c4.173-1.391 7.633-1.37 12-1Z"/><path fill="#88add3" d="m344 219 1 3c4.058-.247 4.058-.247 8-1l1 5-5 2 1 4c3.483.937 3.483.937 7.563 1.25l4.19.453L365 234v1c-2.375.054-4.75.093-7.125.125l-4.008.07c-3.758-.19-6.481-.559-9.867-2.195l-1-4c-3.235-.599-3.235-.599-7-.563-3.875-.066-3.875-.066-7-.437l-1-3c5.738-1.435 10.196-.072 16 1v-7Z"/><path fill="#b9b3a2" d="M337.063 211.563C340 213 340 213 341 218l3 1c.188 3.563.188 3.563 0 7l-5.875-.313-3.305-.175C332 225 332 225 330 222v-3h2v-6c2-2 2-2 5.063-1.438Z"/><path fill="#dce1e5" d="m348 181 1 3 3 3 1 5h-2v-2h-2v-4h-5l-2-2c-5.205 2.514-5.205 2.514-7 7-5 0-5 0-9-4v-5c16.349-1.377 16.349-1.377 22-1Z"/><path fill="#413d37" d="M318 166c3 1 3 1 4.125 5.563.72 4.475 1.374 8.932 1.875 13.437-5 1-5 1-10-2l-1 2c-.552-7.84.437-12.526 5-19Z"/><path fill="#625f5b" d="M275 122c6.213 2.07 9.768 8.614 13 14 2.241 2.788 4.471 5.471 7 8-6.188 1.523-8.024 1.944-12.75-2.625L279 137l-2.938-2.75C274 132 274 132 274 128l4 2 3 1-2-2.375C277 126 277 126 277 124h-2v-2Z"/><path fill="#b9b3a2" d="M406 391c3 3 3 3 3 8h-24c1.434-4.302 3.505-4.232 7.688-5.688l3.699-1.324C400 391 400 391 406 391Z"/><path fill="#88add3" d="M84.688 270.438C96 279.783 96 279.783 96 285c-2.999.084-6.001.082-9 0l-1-2 3-1c-1.16-5.802-2.838-7.42-8-10-2.333-.04-4.667-.043-7 0l1 4c-6.875 1.125-6.875 1.125-8 0 .96-10.743 8.821-10.173 17.688-5.563Z"/><path fill="#625f5b" d="M428 143c-.313 3.438-.313 3.438-1 7l-3 1v-5c-2.126.087-4.25.195-6.375.313l-3.586.175c-3.347.184-3.347.184-5.039 3.512-3 2-3 2-6 2v2l-7 1v2c-4.144 2.762-7.75 2.661-12.688 3.125l-5.261.508L374 161c3.761-5.015 4.53-4.436 10.5-4.188 5.347.278 5.347.278 10.5-.812v-2c6.353-4 6.353-4 9-4l2-4c3.005-.575 6.017-1.142 9.055-1.508 11.243-1.879 11.243-1.879 12.945-1.492Z"/><path fill="#b9b3a2" d="m253 191 2 1v2c2.61 1.205 2.61 1.205 5.875 2.313 5.964 2.207 11.555 4.611 17.125 7.687v2c-6.437 1.497-9.687-.015-15-4-5.784-3.124-10.482-3.268-17-3 2.002-4.005 3.368-5.548 7-8Z"/><path fill="#b9b3a2" d="m243 385 2 4c3.507 5.307 3.507 5.307 9 7v2h-2v2c-4-1-4-1-9-3l.25 3.375C243 404 243 404 239 406v-8h2v-3h-6l-1-3c6.057-4 6.057-4 9-4v-3Z"/><path fill="#b4c8da" d="M59 385v7c2.25-.114 4.5-.242 6.75-.375 1.253-.07 2.506-.14 3.797-.21 3.675-.245 3.675-.245 7.453-2.415l1-3c4 1 4 1 6 3 2.53.39 5.076.69 7.625.938 5.87.664 10.988 1.48 16.375 4.062v1c-5.192-.465-9.12-1.048-14-3-4.176-.063-4.176-.063-8.625.313l-4.54.3c-3.75.237-3.75.237-6.835 1.387-2.454.197-4.914.312-7.375.375l-3.96.148c-4.473-.638-5.858-2.088-8.665-5.523 4-4 4-4 5-4Z"/><path fill="#413d37" d="M256 280c1.38 3.65 2.373 6.977 3.25 10.75l.773 3.078A697.87 697.87 0 0 1 262 302c.476 4.294.476 4.294 4 5 2 5 2 5 1 10-4-1-4-1-7-5l2-2c-.322-3.1-.322-3.1-1-6h-2a183.693 183.693 0 0 1-2.625-10.375l-1.352-5.836C254 283 254 283 254 281h-2l-1 10h-1c-.14-11-.14-11 6-11Z"/><path fill="#b9b3a2" d="M431 381c3-.082 6-.14 9-.188l5.063-.105c5.011.297 8.493.965 12.937 3.293l1 5c-5.055 2.022-9.442 2.821-14.813 3.625l-5.207.79L435 394c2.444-6.11 2.906-5.707 9-6.688 5.032-.592 5.032-.592 9-3.312-4.483-1.12-8.635-1.332-13.25-1.563l-4.953-.253L431 382v-1Z"/><path fill="#8d877b" d="M393 159c-1 2-1 2-6 3v2l-4 .813c-5.258 1.248-8.488 3.302-13 6.187-3.5.813-3.5.813-6 1 0-6.233 3.938-6.976 9-10 6.76-2.704 12.75-3 20-3Z"/><path fill="#b4c8da" d="M398 167h4v2l3 1-1 4-4 1c1.842 2.053 1.842 2.053 4 3-2 2-2 2-8 2v-3l-1 2h-5v3l-3 1c.75-6.75.75-6.75 3-9h3v-2l4-1 1-4Z"/><path fill="#8d877b" d="M358 177h1a379.511 379.511 0 0 1 3 9l2-1 .516 2.59.734 3.347.703 3.34c.822 3.246.822 3.246 5.047 3.723 1.75 4.063 1.75 4.063 3 8-9.11-1.927-11.254-6.863-15-15-1.19-4.762-1.064-9.108-1-14Z"/><path fill="#8d877b" d="M286 388c0 4.614-3.048 6.626-6 10l-1 3h-2l-1 8h-2l-1 3c-3.563.688-3.563.688-7 1l2-5 1.25-3.5c2.022-4.043 4.177-5.784 7.75-8.5l2.625-2.625C282 391 282 391 286 388Z"/><path fill="#8d877b" d="m298 109 3 1v9c1.279 3.994 1.279 3.994 3 8l1.563 5.313c1.16 4.582 1.16 4.582 3.437 7.687-2 1-2 1-8 1-2.047-2.852-2.047-2.852-3.75-6.625l-1.734-3.727A113.778 113.778 0 0 1 292 121c3.71 3.71 5.649 6.645 8.125 11.188 2.171 4.658 2.171 4.658 5.875 7.812l-1.242-2.633-1.633-3.492-1.617-3.445c-3.34-7.599-3.692-13.163-3.508-21.43Z"/><path fill="#b4c8da" d="M302 401c0 3.38-.875 5.835-2 9l7-1v4l-8-1 1 3c-12.202-2.94-12.202-2.94-16-7v-2l-2-1c6 0 6 0 9 2l4-1h3c2.201-2.44 2.201-2.44 4-5Z"/><path fill="#413d37" d="M197 207c-1.227 4.154-2.328 6.437-5 10l-1-2-4 1c-2.416.068-4.833.085-7.25.063l-3.828-.028L173 216c3.843-5.124 6.425-5.251 12.563-6.75l5.19-1.297C195 207 195 207 197 207Z"/><path fill="#b4c8da" d="M63 343h9v2l5 1c3.375 2.313 3.375 2.313 6 5l-1 4v-2l-3.063.188C72.552 352.882 67.582 350.442 63 346v-3Z"/><path fill="#b9b3a2" d="M284 110h2l2 4h-3c2.663 9.134 5.494 17.613 10 26l1 3c-5.176-1.294-6.358-3.41-8.313-8.25-1.998-4.44-4.678-7.939-7.687-11.75h4v-13Z"/><path fill="#b4c8da" d="M276 347c5.984 4.03 5.984 4.03 6.063 8.688C281 359 281 359 278 361c-11.913 1.153-21.7-2.7-30-11 4.97 1.49 9.367 3.684 14 6 4.59 1.836 6.789 2 12 2 1.639-3.873 2-6.795 2-11Z"/><path fill="#625f5b" d="M312 177h1l1 6h4l1 2h4l2-4v11h-4v2l-4 1-2 2-.938-3.375c-.885-3.42-.885-3.42-2.062-5.625-.04-3.666-.043-7.334 0-11Z"/><path fill="#625f5b" d="M294 211v1l5 1v2h4v3c-11.75 2.125-11.75 2.125-14 1l-1 2-2-5-2-1v-2l-4-1c4.719-.944 9.194-1.083 14-1Z"/><path fill="#b4c8da" d="m388 168-2.938 1.375c-3.133 1.283-3.133 1.283-4.062 3.625-2.964 1.61-5.799 2.933-9 4l-2 4-4 2v6c-2-1-2-1-2.371-3.906l-.067-3.594-.12-3.594L364 175l5-1 3.25-1.875c10.417-5.903 10.417-5.903 15.75-4.125Z"/><path fill="#dce1e5" d="M325 426c3 5 3 5 3 8-7.98-.41-14.103-6.054-20-11 6.66-2.22 11.672-1.584 17 3Z"/><path fill="#625f5b" d="M305 163v2l5-2c2.999-.078 6.001-.09 9 0l-1 3v-2c-3.355.79-6.709 1.582-10.063 2.375l-5.66 1.336c-3.086.754-6.164 1.551-9.21 2.453C290 171 290 171 286 171c.04-2.914.04-2.914 1-6 3.273-1.023 3.273-1.023 7.375-1.375l4.086-.398A102.39 102.39 0 0 1 305 163Z"/><path fill="#413d37" d="M251 135c3.966 2.38 6.838 4.486 10.188 7.563l2.605 2.378c1.425 1.33 2.83 2.681 4.207 4.059l4 2c-5.313 2.313-5.313 2.313-11 4-3-5-3-5-3.313-7.938-.962-4.285-3.574-6.081-6.687-9.062v-3Z"/><path fill="#413d37" d="M268 136c6.387 2.555 9.9 5.535 14 11-3.563 2-3.563 2-8 3-3.75-3.438-3.75-3.438-7-8l-2.5-3.438L263 136c1-1 1-1 5 0Z"/><path fill="#88add3" d="M364 188c4.564 1.521 6.172 5.229 9 9l3 1v2h4l-1 4v-2h-3v2h2v2h-2v2h2v3c-5-2-5-2-10-5l4-1-1-4v-3l-4-1c-1.75-4.563-1.75-4.563-3-9Z"/><path fill="#625f5b" d="M436 192c2.955 6.732 3.127 13.751 3 21-3 0-3 0-5.188-2.688-2.438-5.801-2.362-11.09-1.812-17.312 1-1 1-1 4-1Z"/><path fill="#b4c8da" d="m246 268 2 1-1 1c-4.188 17.229-4.188 17.229-1 34 .396 3.326.736 6.66 1 10-2-1-2-1-3-6h-2c-1.101-5.505-1.109-10.732-1.063-16.313l.014-3.11c.012-2.526.03-5.052.049-7.577h2l.375-4.25C244 272 244 272 246 268Z"/><path fill="#b9b3a2" d="M398 197h1l.813 4.25c2.816 6.116 5.123 6.382 11.375 7.898C414 210 414 210 417 213v2c-2.605-.309-5.209-.622-7.813-.938l-4.394-.527C401 213 401 213 398 212v-2l3-1-3-1c-1.39-8.221-1.39-8.221 0-11Z"/><path fill="#8d877b" d="m224 158 3 2-5 1 2.5 1.813C227 165 227 165 227 168l-7-1 1 2-1 2h-2v-2h-2l-1 3c-.312-14.653-.312-14.653 9-14Z"/><path fill="#8d877b" d="m318 164-1 4v-2c-6.565 1.202-12.707 2.784-19 5-8.556 3-8.556 3-13 3v2c-3.018.746-6.039 1.485-9.082 2.121-3.236.724-3.236.724-5.918 3.879l-5 1c1-2 1-2 6-5l3-2c2.992-.399 5.993-.739 9-1v-2c10.662-4.83 23.278-9 35-9Z"/><path fill="#dce1e5" d="M285 383c-1.33 5.322-4.075 7.201-8 11-3.32 3.72-6.564 7.439-9.625 11.375C265 408 265 408 260 410l2.5-3.313a797.38 797.38 0 0 0 9.668-13.269C280.061 383 280.061 383 285 383Z"/><path fill="#b9b3a2" d="M131 325c4.684 1.561 6.869 5.3 10 9l2 2v4h2l2 5 5 2c.813 3.625.813 3.625 1 7-7.926-3.423-10.353-7.926-13-16v-2l-4-2a167.68 167.68 0 0 1-5-9Z"/><path fill="#88add3" d="M214 263c.86 21.093.86 21.093-5 25-2.55-7.647-1.116-16.406 1-24 1-1 1-1 4-1Z"/><path fill="#8d877b" d="M373 334c-4 2-4 2-7.625 2.438-3.651.186-3.651.186-5.375 3.562-4.125.688-4.125.688-8 1v2c-3-.875-3-.875-6-2v-2l-4-1 2.938-.313c4.128-.557 4.128-.557 8.062-2.25 6.727-1.933 13.05-1.684 20-1.437Z"/><path fill="#fcfcfc" d="M128 326c3 3 3 3 2 7-2.617 1.012-2.617 1.012-5.875 1.688l-3.242.699L118 336l-3 1c2.049-8.194 4.685-11.573 13-11Z"/><path fill="#413d37" d="M245 357c4.301.627 8.297 1.62 12.438 2.938l3.457 1.074c2.252.717 4.495 1.467 6.73 2.238 5.704 1.268 11.792 1.61 17.375-.25 1.709-3 1.709-3 3-6 2 2 2 2 2 8-10.305 6.87-30.958-.995-41.5-5.188L245 358v-1Z"/><path fill="#88add3" d="m362 224 24 4v2l32 1v1c-12.342.209-24.565.066-36.875-.875l-3.312-.238c-7.69-.64-7.69-.64-8.813-2.887a441.534 441.534 0 0 0-7-3v-1Z"/><path fill="#88add3" d="M446 136c-1.291 6.456-4.042 7.868-9 12l-3 4c-3.188.75-3.188.75-6 1 3.517-7.034 9.164-17 18-17Z"/><path fill="#dce1e5" d="m372 394 2 4c-5.861 3.684-12.274 4.152-19 5 2.352-5.88 3.362-5.95 9-8 2.11-2.11 5.281-1.238 8-1Z"/><path fill="#413d37" d="m274 170 2 1-2 1v-2Zm0 3c-3 3-3 3-6 3l-1 3a199.717 199.717 0 0 1-9 4 135.578 135.578 0 0 0-13.375 7.313C240 193 240 193 238 192c4.625-4 4.625-4 8-4v-2h3l1-3c3.26-1.908 6.5-3.177 10.063-4.438 3.691-1.465 5.992-2.963 8.937-5.562 2-1 2-1 5 0Z"/><path fill="#b4c8da" d="M38 304c10.774-.284 21.298.816 32 2v1H54v2c-8.073.108-15.955-.308-24-1v-1h12v-2l-4-1Z"/><path fill="#88add3" d="M203 253c-.141 2.25-.288 4.5-.438 6.75-.08 1.253-.162 2.506-.246 3.797C202 267 202 267 201 271c-.081 2.17-.108 4.344-.098 6.516l.01 3.789.025 3.945.014 3.992c.012 3.253.03 6.505.049 9.758-8.435-8.435-2.308-34.45 0-45 1-1 1-1 2-1Z"/><path fill="#8d877b" d="M266 263c-1.933 3.865-7.266 5.133-11 7l-1 2 2 1-2 2 1 5h-3l-1-2-3 2c-.326-5.536-.014-6.976 3-12 5.382-3.105 8.74-5 15-5Z"/><path fill="#b9b3a2" d="M310 237c-2.393 4.786-4.376 5.529-9 8l-4 3 1 2-9 1c2.656-4.495 6.188-10 12-10v-2c3-2 3-2 9-2Z"/><path fill="#8d877b" d="m435 221 4.625 2.875c3.74 2.259 7.206 3.803 11.375 5.125 3 3 3 3 3 5h-8v2l-7-1v-3l4-2c-.794-3.656-.794-3.656-6-5l-2-4Z"/><path fill="#625f5b" d="m287 164-.625 3.438L286 171l2 1-5 1v2l-7 1 4-4a402.401 402.401 0 0 0-3-6c4.484-3.363 4.928-3.268 10-2Z"/><path fill="#8d877b" d="M232 143c4.8 1.2 6.648 3.093 10.25 6.438l3.266 2.996C248 155 248 155 248 157l-4 2c-8-6-8-6-8-10l-4-3v-3Z"/><path fill="#625f5b" d="M250 134c2 1 2 1 3 5l3.063 3.5C259 146 259 146 259 150c-6.718-1.68-10.932-6.576-15-12l5-2 1-2Z"/><path fill="#88add3" d="m387 165-5.063 2.75a342.441 342.441 0 0 0-9.875 5.563C369 175 369 175 365 176c-.827 4.524-.827 4.524-1 9h-1c-.784-8.012-.784-8.012 0-12 4.125-2.5 4.125-2.5 9-4l3.25-2.188c4.152-2.736 6.97-3.007 11.75-1.812Z"/><path fill="#413d37" d="M353 149v1h-9l.188 5.313C343 161 343 161 337.938 163.188c-12.576 1.72-12.576 1.72-16.938-1.188l1-5c3 3 3 3 3 6 5.164-1.618 9.33-3.198 14-6h2c.743-2.31 1.411-4.646 2-7l-3-1c4.433-1.478 8.414-.536 13 0Z"/><path fill="#ebe4c8" d="M175 399c6.698 1.151 11.486 2.99 17 7v2a712.139 712.139 0 0 1-6.188-.375c-1.148-.07-2.297-.14-3.48-.21C179 407 179 407 174 405c.188-3.125.188-3.125 1-6Z"/><path fill="#8d877b" d="M211 317c2 0 2 0 5 5l2.188 2.688C220 327 220 327 220 329h4l3 5a346.225 346.225 0 0 0 6 7c-7.462-1.492-10.938-6.573-16-12l-3.125-3.313c-2.075-2.974-2.619-5.096-2.875-8.687Z"/><path fill="#88add3" d="m395 175 2 3-1 2 6-1-4 2c.159 4.105.159 4.105 1 8h-3c-1-5-1-5 1-8h-3l-1 2h-2l1 4-1 5 2 1-1 5h-2c-1.479-2.958-1.132-5.648-1.125-8.938l-.008-3.777C389 182 389 182 390 179h5v-4Z"/><path fill="#b4c8da" d="M174 409v1l-3.84-.219-5.097-.281-5.028-.281c-4.687-.204-9.345-.257-14.035-.219v-2l-4 1c-3.083.07-6.167.085-9.25.063l-4.953-.028L124 408v-1c1.806-.09 1.806-.09 3.648-.184l4.727-.253 4.71-.247c12.597-1.018 24.254-.663 36.915 2.684Z"/><path fill="#fcfcfc" d="M77.188 270.625c5.825.573 8.767 3.33 12.812 7.375l-1 5c-4-2-4-2-6.875-4.438-2.943-2.413-5.673-4-9.125-5.562 1-2 1-2 4.188-2.375Z"/><path fill="#625f5b" d="M233 202h5a728.757 728.757 0 0 1-7.719 7.648c-4.94 4.844-9.511 9.502-13.281 15.352 0-7.946 7.329-15.896 13-21h3v-2Z"/><path fill="#dce1e5" d="M92 302c5.49-.28 10.614.11 16 1.125l3.375.633C114 305 114 305 114.875 308.118L115 311c-4.17-1.043-8.033-2.347-12-4v-2l-3.813.625C95 306 95 306 92 304v-2Z"/><path fill="#625f5b" d="m169 250 1 4h2l-1 4h-2l-1 3c-3 1-3 1-5.688-1.313C160 257 160 257 160 255c5-5 5-5 9-5Z"/><path fill="#88add3" d="m172 337 1 2h2v2l3 1-.063 4.938L178 352l4 2 3 5-2 3a502.08 502.08 0 0 1-5.5-7.438l-3.094-4.183c-2.702-4.918-2.885-7.857-2.406-13.379Z"/><path fill="#b4c8da" d="m155 299-3 1v2l5 2c.813 3.625.813 3.625 1 7h-4l-1 3c-2.921-5.295-4-7.789-4-14 1-1 1-1 6-1Z"/><path fill="#8d877b" d="m325 185 2.063 2.375c3.281 2.933 5.73 3.573 9.937 4.625l1 2-4.375-.625c-4.548-.96-4.548-.96-6.625 1.625l-2 3-1-2-5-1-2 4-3-1c-.688-4.063-.688-4.063-1-8 2 1 2 1 3 5l5-1v-2h4l-1-4 1-3Z"/><path fill="#b4c8da" d="M171 338h1l.438 4.125c1.224 6.704 5.1 11.347 9.152 16.676C184 362 184 362 187 367l-1 2a971.577 971.577 0 0 1-3.5-4.875l-1.969-2.742C179 359 179 359 179 357c-2.327-.69-4.66-1.355-7-2-3.027-3.027-1.977-5.473-1.625-9.625l.336-4.164L171 338Z"/><path fill="#8d877b" d="M329 257h1v9l3-6 2 1c-5.002 12.67-5.002 12.67-9 18-2-2-2-2-1-6l2-5-1-3h2l1-8Z"/><path fill="#b4c8da" d="M434 413c2 2 2 2 2 7-3.618 3.618-13.401 2.28-18 2-5.125-2-5.125-2-9-4 2-1 2-1 5.625-.063 7.245 1.76 11.778 2.33 17.375-2.937h2v-2Z"/><path fill="#625f5b" d="M285 114c4 1 4 1 7 5l-1 2h-1c1.92 6.862 1.92 6.862 4.75 13.375C296 137 296 137 295 141c-3.146-4.347-5.044-8.4-6.688-13.5l-1.261-3.844A69.131 69.131 0 0 1 285 114Z"/><path fill="#b9b3a2" d="M309 191c-2 2-2 2-7 2v2l4 1v3l5 1v2l2 1-1 2h2v2c-5-2-5-2-6-5l-4-2c-2.813-2.375-2.813-2.375-5-5l1-4c3.564-1.007 5.463-1.18 9 0Z"/><path fill="#8d877b" d="M234 149v1h-5c2.5 4.976 2.5 4.976 6 7v5c-5.75-.5-5.75-.5-8-5l-4-4c1.775-5.324 5.857-4 11-4Z"/><path fill="#88add3" d="M423 147c-2 5-2 5-6 6l-3 2v-2l-4 1v2h-5v-3c2 0 2 0 3 1l2-4c5.24-3.144 7.134-3.298 13-3Z"/><path fill="#ebe4c8" d="M281 423c6 6.23 6 6.23 6 9-8.5.25-8.5.25-13-2v-2h2l-1-3c2-2 2-2 6-2Z"/><path fill="#ebe4c8" d="M230 398v2h-2v6c-5.162-.506-7.369-1.221-12-4v-2c4.84-1.3 8.974-2 14-2Z"/><path fill="#b4c8da" d="M347 398c-4.156 6.51-7.576 6.512-15 7l-1 3c-1-4-1-4 3-8 5.026-3.77 7.004-2.97 13-2Z"/><path fill="#b4c8da" d="m348 181 1 3 3 3 1 5h-2v-2h-2v-4h-5l-1-2c-3.442-.284-3.442-.284-7.438-.188l-4.12.02c-3.3-.07-3.3-.07-5.442 1.168v-3c16.349-1.377 16.349-1.377 22-1Z"/><path fill="#625f5b" d="m456 227 4 1c.875 4 .875 4 1 8-4.525 2.262-10.268 1.183-15 0v-2h8v-2l-3-1c4-1 4-1 6 0l-1-4Z"/><path fill="#88add3" d="m350 176 2 5 3 1-3 2v-2l-4-2-4-2-3.063 1.375C337 181 337 181 331.125 180.938L326 181l-1 4v-5c2.738-1.11 2.738-1.11 6.313-1.75l3.55-.672L338 177c4.173-1.391 7.633-1.37 12-1Z"/><path fill="#b4c8da" d="M297 112h1l.25 3.813c1.157 8.001 4.08 15.032 7.75 22.187v2c-4.324-1.441-5-4.014-7.188-7.938l-2.167-3.84C295 125 295 125 295 123h2v-11Z"/><path fill="#88add3" d="M164 389c10.185.867 19.03 6.446 28 11l-1 3-5.125-2.625c-5.935-2.985-11.984-5.577-18.137-8.078C165 391 165 391 164 389Z"/><path fill="#1c1a18" d="M309 346c3.477 4.636 3.536 6.368 3 12l-3 3-2 5-3 2 2-5c1.095-3.285 1.034-5.616.938-9.063C307 348 307 348 309 346Zm-6 22v3l-2-2 2-1Z"/><path fill="#dce1e5" d="M337 211.625c3 1.375 3 1.375 4 6.375h2v4c-4.902-.98-6.623-1.526-10-5 0-6.208 0-6.208 4-5.375Z"/><path fill="#413d37" d="m432 134 4 2c1.991.383 3.991.726 6 1-3 3-3 3-5 3l-2 4c-4 4-4 4-9 5 2-4 2-4 4-5l2-5 2-1-3-3 1-1Z"/><path fill="#b4c8da" d="M326 414c2 2 2 2 2 7l4 2-2 2c-.447 5.85-.447 5.85 2 10-5.309-1.327-5.215-3.09-7-8h2v-2h-2c-1.25-6.5-1.25-6.5 1-11Z"/><path fill="#413d37" d="M274 128c6.772 3.386 13.136 9.546 15 17-5.05 0-6.907-4.32-10-8l-2.938-2.75C274 132 274 132 274 128Z"/></svg></g></svg>